<?xml version="1.0" encoding="UTF-8"?>
<svg version="1.1" xmlns="http://www.w3.org/2000/svg" width="512" height="512">
<path d="M0 0 C3.5634959 2.55800046 7.0215393 5.24500174 10.46533203 7.96118164 C18.3163422 14.13241973 26.62906346 19.56623417 35 25 C41.51617017 21.00304033 47.78776109 16.76090294 54 12.3125 C90.3525214 -13.52953465 90.3525214 -13.52953465 109 -11 C120.59311612 -8.23406248 128.85864281 -1.89508903 135.625 7.8125 C140.48788306 16.0454741 143.6678657 25.0711344 147 34 C147.47590377 35.27034793 147.95181567 36.54069282 148.42773438 37.81103516 C149.96156245 41.9121038 151.48335398 46.01754947 153 50.125 C153.24955444 50.79955231 153.49910889 51.47410461 153.75622559 52.1690979 C154.46632198 54.09312126 155.17153998 56.01885427 155.875 57.9453125 C156.28492188 59.06437988 156.69484375 60.18344727 157.1171875 61.33642578 C158 64 158 64 158 66 C159.21357178 65.98952637 160.42714355 65.97905273 161.67749023 65.96826172 C166.26421044 65.93152692 170.85091823 65.90890903 175.43774414 65.89013672 C177.40716757 65.88019904 179.37657673 65.86664424 181.34594727 65.84912109 C224.60332315 65.47440752 224.60332315 65.47440752 238 78 C246.16699569 86.07203063 249.17462807 94.33604414 249.3125 105.6875 C249.34150391 106.43322266 249.37050781 107.17894531 249.40039062 107.94726562 C249.56490661 123.34849327 243.34054728 139.13873575 238.97729492 153.75390625 C238.29382077 156.04996332 237.62086526 158.34889769 236.94921875 160.6484375 C236.73786789 161.34520599 236.52651703 162.04197449 236.3087616 162.75985718 C235.11460507 166.86017709 235.11460507 166.86017709 236 171 C238.33389405 173.01654553 238.33389405 173.01654553 241.25 175.0625 C242.34696605 175.86374629 243.4432984 176.66586073 244.5390625 177.46875 C245.10915039 177.88382813 245.67923828 178.29890625 246.26660156 178.7265625 C287.25673854 208.83988003 287.25673854 208.83988003 291 226 C292.12359339 237.37351677 291.05391161 247.54806428 284.3125 257.125 C283.23327169 258.43757497 282.12783529 259.72894753 281 261 C280.42121094 261.67160156 279.84242188 262.34320313 279.24609375 263.03515625 C273.86781824 268.8344318 267.67701548 273.28583895 261.24511719 277.82177734 C254.53862787 282.55617684 248.07243548 287.55497694 241.66235352 292.68237305 C240.59198853 293.52989136 240.59198853 293.52989136 239.5 294.39453125 C238.8709375 294.89831299 238.241875 295.40209473 237.59375 295.92114258 C236 297 236 297 234 297 C234.15842377 297.54155731 234.31684753 298.08311462 234.48007202 298.64108276 C236.13990533 304.31816901 237.79378334 309.99696653 239.44433594 315.67675781 C240.05969615 317.7914532 240.67653344 319.9057194 241.29492188 322.01953125 C242.18755984 325.07177719 243.07473516 328.12556766 243.9609375 331.1796875 C244.23497406 332.11239471 244.50901062 333.04510193 244.79135132 334.006073 C247.3755671 342.94912644 249.39548022 351.65692277 249.375 361 C249.37338867 361.77891602 249.37177734 362.55783203 249.37011719 363.36035156 C249.15633049 373.41671021 245.41265824 381.24790651 238.5625 388.625 C237.716875 389.40875 236.87125 390.1925 236 391 C235.278125 391.680625 234.55625 392.36125 233.8125 393.0625 C223.54268946 400.13725837 211.25239693 401.26721283 199.125 401.625 C198.0210791 401.66294678 196.9171582 401.70089355 195.77978516 401.73999023 C182.85598132 402.13949938 169.92824757 402.09508216 157 402 C156.79632813 403.13308594 156.59265625 404.26617187 156.3828125 405.43359375 C154.82525498 412.41532488 152.23059699 419.06563098 149.734375 425.75366211 C148.88741286 428.02915102 148.05647084 430.31004233 147.2265625 432.59179688 C134.5758752 466.93209614 134.5758752 466.93209614 118 475 C105.79779171 479.90300212 93.84001587 477.97792671 81.86816406 473.13818359 C79.76106589 472.20066629 77.68969379 471.21488846 75.625 470.1875 C75.00818359 469.88070313 74.39136719 469.57390625 73.75585938 469.2578125 C68.16608195 466.32955158 63.1206193 462.6699487 58 459 C54.22025359 456.31599025 50.42640325 453.65322431 46.625 451 C45.65433594 450.30777344 44.68367188 449.61554688 43.68359375 448.90234375 C42.74902344 448.25394531 41.81445312 447.60554688 40.8515625 446.9375 C40.01447754 446.34839844 39.17739258 445.75929688 38.31494141 445.15234375 C36.12164091 443.81347527 36.12164091 443.81347527 33.94140625 444.15893555 C31.79071068 445.09066923 30.00627086 446.17333024 28.0859375 447.51953125 C27.33417236 448.04135986 26.58240723 448.56318848 25.80786133 449.10083008 C25.00501709 449.66568115 24.20217285 450.23053223 23.375 450.8125 C21.6579821 452.00062168 19.94052363 453.18810689 18.22265625 454.375 C15.68444475 456.13630378 13.14663771 457.89818905 10.60888672 459.66015625 C-20.3394216 481.05002929 -20.3394216 481.05002929 -40 479 C-50.55860613 476.49187224 -58.73841686 469.74345359 -65.125 461.125 C-72.91830843 448.3526334 -77.3948468 433.42708753 -82.5 419.4375 C-82.91007294 418.31565308 -82.91007294 418.31565308 -83.32843018 417.17114258 C-84.10864241 415.03097749 -84.8835733 412.88898952 -85.65625 410.74609375 C-85.89334686 410.09483017 -86.13044373 409.44356659 -86.37472534 408.77256775 C-88 404.23211247 -88 404.23211247 -88 402 C-88.55773102 402.00444122 -89.11546204 402.00888245 -89.69009399 402.01345825 C-95.56387739 402.05815617 -101.43761147 402.08805636 -107.31152344 402.10986328 C-109.49546271 402.11984002 -111.67938892 402.13342621 -113.86328125 402.15087891 C-153.28117185 402.45770315 -153.28117185 402.45770315 -166 392 C-175.56987612 382.54249033 -179.36538649 374.230408 -179.453125 360.87084961 C-179.1094593 343.84783192 -172.50711185 326.84675349 -167.54101562 310.73266602 C-167.21037109 309.65041748 -166.87972656 308.56816895 -166.5390625 307.453125 C-166.09361084 306.01694824 -166.09361084 306.01694824 -165.63916016 304.55175781 C-164.83801844 301.79174254 -164.83801844 301.79174254 -165 298 C-167.07923562 295.95820718 -167.07923562 295.95820718 -169.9375 294.0625 C-171.04259015 293.27081873 -172.14670004 292.47776795 -173.25 291.68359375 C-173.85199219 291.25546387 -174.45398438 290.82733398 -175.07421875 290.38623047 C-186.11341365 282.43991345 -196.79793428 273.99411785 -207 265 C-207.70769531 264.38898438 -208.41539062 263.77796875 -209.14453125 263.1484375 C-216.0328362 256.81539896 -220.67694768 248.39126655 -221.23828125 239.0234375 C-221.56949924 225.22664875 -219.29820504 216.54988649 -210 206 C-209.49984375 205.42894531 -208.9996875 204.85789063 -208.484375 204.26953125 C-203.20040138 198.65197344 -196.92816721 194.08985876 -190.82861328 189.40527344 C-189.07780674 188.05979381 -187.33298817 186.70694725 -185.58984375 185.3515625 C-178.82131966 180.10048333 -171.96083359 174.99394474 -165 170 C-165.64841585 164.51326436 -166.8935789 159.40155779 -168.43359375 154.1015625 C-168.67159195 153.26716644 -168.90959015 152.43277039 -169.15480042 151.5730896 C-169.91137202 148.92246454 -170.67395654 146.27362437 -171.4375 143.625 C-172.19678646 140.98333096 -172.95467021 138.34128328 -173.70948792 135.69833374 C-174.17754613 134.06019409 -174.64818412 132.42278838 -175.12193298 130.7862854 C-179.65667354 114.94475656 -182.71154594 99.57144246 -174.53515625 84.38671875 C-168.34930366 74.76952808 -159.66683903 69.92481754 -148.75 67.25 C-128.65621412 63.65020233 -107.35003719 64.82008808 -87 65 C-86.885354 64.32541748 -86.77070801 63.65083496 -86.65258789 62.95581055 C-85.87671263 59.44158615 -84.74832642 56.09686919 -83.55859375 52.70703125 C-83.31525803 52.00747818 -83.0719223 51.30792511 -82.82121277 50.58717346 C-82.0319635 48.32703846 -81.23593547 46.06940534 -80.4375 43.8125 C-80.16677673 43.04633362 -79.89605347 42.28016724 -79.61712646 41.49078369 C-67.74410228 7.99832786 -67.74410228 7.99832786 -60 0 C-59.40703125 -0.62003906 -58.8140625 -1.24007813 -58.203125 -1.87890625 C-40.68887477 -18.65755797 -17.96636303 -11.94281341 0 0 Z " fill="#8DC63F" transform="translate(221,22)"/>
<path d="M0 0 C5.74106783 2.10148122 9.49904124 6.11987567 13 11 C15.04065442 17.12196326 14.87552194 24.41951428 12.8125 30.5 C11.21610348 32.70192623 9.53158894 34.51737564 7.60195923 36.41998291 C5.68490212 38.31078196 3.78631574 40.2193486 1.88745117 42.12841797 C-2.41510678 46.44890359 -6.72082155 50.76622917 -11.02758789 55.08251953 C-12.87972757 56.93969264 -14.73096935 58.79776164 -16.58129883 60.65673828 C-19.26664895 63.35428693 -21.95527656 66.04853208 -24.64453125 68.7421875 C-25.87149467 69.97689285 -25.87149467 69.97689285 -27.12324524 71.23654175 C-31.28566304 75.39936052 -35.52812249 79.37303736 -39.98881531 83.21243286 C-43.83320588 86.62937725 -47.41474225 90.31409383 -51.03125 93.96875 C-51.86660278 94.8078894 -52.70195557 95.64702881 -53.56262207 96.51159668 C-56.21087086 99.171969 -58.85584406 101.83556013 -61.5 104.5 C-64.98662601 108.01337273 -68.47664926 111.52331971 -71.96875 115.03125 C-72.75544067 115.82623901 -73.54213135 116.62122803 -74.35266113 117.44030762 C-78.4356772 121.54120201 -82.60612766 125.4411653 -86.99084473 129.21569824 C-90.75892178 132.56207301 -94.26959933 136.16865851 -97.8125 139.75 C-98.62565674 140.56694336 -99.43881348 141.38388672 -100.27661133 142.22558594 C-102.85353297 144.81462671 -105.42717625 147.40688737 -108 150 C-111.39287153 153.41962719 -114.78914657 156.83582149 -118.1875 160.25 C-118.95231689 161.02311523 -119.71713379 161.79623047 -120.50512695 162.59277344 C-124.62480156 166.73097867 -128.82609596 170.69471047 -133.26913452 174.48492432 C-136.83655685 177.60759034 -140.02147806 181.11639045 -143.2890625 184.546875 C-148.99155093 189.70705185 -153.70420399 190.49182016 -161.16015625 190.2890625 C-169.51605787 189.43853056 -174.88564189 183.30736662 -180.0546875 177.265625 C-182.12668903 174.85245053 -184.24398844 172.48619051 -186.375 170.125 C-187.13296875 169.28453125 -187.8909375 168.4440625 -188.671875 167.578125 C-189.44015625 166.72734375 -190.2084375 165.8765625 -191 165 C-199.57173295 155.5078125 -199.57173295 155.5078125 -203.375 151.125 C-206.35916686 147.69667808 -209.42188484 144.34379199 -212.5 141 C-216.14105468 137.04468032 -219.73641544 133.05796824 -223.25390625 128.9921875 C-225.32374291 126.63062889 -227.44472279 124.31863129 -229.5625 122 C-237.32678174 113.37449247 -242.62197021 107.03121877 -242.37109375 95.00390625 C-241.55370488 88.38735846 -237.98568578 84.55109795 -232.875 80.5625 C-227.74757892 76.90148145 -223.16662415 76.32567818 -217 77 C-206.26674822 79.85130377 -200.19599307 88.66272701 -193.55859375 96.93359375 C-189.56238791 101.72293968 -185.27384142 106.22934119 -181.0078125 110.77734375 C-178.16095556 113.81451737 -175.40212415 116.91731908 -172.6796875 120.06640625 C-170.60020407 122.4602302 -168.4906589 124.82559228 -166.375 127.1875 C-165.30378906 128.38439453 -165.30378906 128.38439453 -164.2109375 129.60546875 C-161.87145293 132.13922147 -159.44425036 134.56762475 -157 137 C-156.25427734 136.24904053 -155.50855469 135.49808105 -154.74023438 134.72436523 C-151.93980261 131.9056626 -149.13592255 129.09041081 -146.33105469 126.27612305 C-145.12374935 125.06382752 -143.91734766 123.8506313 -142.71191406 122.63647461 C-131.39037267 111.23513794 -131.39037267 111.23513794 -127.09375 107.59765625 C-120.331511 101.84314795 -114.24170722 95.30512079 -108 89 C-105.35717585 86.33032568 -102.71088176 83.66415992 -100.0625 81 C-99.47267334 80.401875 -98.88284668 79.80375 -98.27514648 79.1875 C-95.28037622 76.17550151 -92.22820595 73.29101535 -89.01367188 70.51367188 C-85.06831212 67.10325202 -81.3801022 63.49227218 -77.71875 59.78125 C-77.06096558 59.11967896 -76.40318115 58.45810791 -75.72546387 57.77648926 C-73.64782726 55.68677265 -71.57349373 53.59382685 -69.5 51.5 C-66.7634185 48.736583 -64.02337737 45.97666278 -61.28125 43.21875 C-60.36369934 42.28875183 -60.36369934 42.28875183 -59.4276123 41.33996582 C-55.71965222 37.61139339 -51.87696827 34.11500542 -47.89834595 30.677948 C-45.13558388 28.23594259 -42.56324732 25.63279238 -39.99609375 22.98828125 C-38.91500182 21.8896902 -37.83361288 20.79139136 -36.75195312 19.69335938 C-35.08785068 17.99827172 -33.42624797 16.300935 -31.76977539 14.59838867 C-30.14376537 12.92977159 -28.50821194 11.27099172 -26.87109375 9.61328125 C-26.3854747 9.10904129 -25.89985565 8.60480133 -25.39952087 8.08528137 C-17.81177839 0.44226271 -10.6498847 -1.41424566 0 0 Z " fill="#FEFEFD" transform="translate(380,178)"/>
</svg>
