<?xml version="1.0" encoding="UTF-8"?>
<svg version="1.1" xmlns="http://www.w3.org/2000/svg" width="512" height="512">
<path d="M0 0 C1.16913773 -0.00307895 1.16913773 -0.00307895 2.3618944 -0.0062201 C4.9833 -0.01189117 7.60465307 -0.01043272 10.22606373 -0.00901413 C12.12066086 -0.0115977 14.01525745 -0.01461084 15.90985328 -0.01801753 C21.12397707 -0.02609168 26.3380871 -0.02787733 31.55221641 -0.028615 C37.17268962 -0.03046482 42.79315568 -0.03801179 48.41362476 -0.04475021 C60.70699552 -0.0583369 73.00036302 -0.06435874 85.29374003 -0.06876087 C92.96830327 -0.07152266 100.64286525 -0.07575989 108.31742764 -0.08026505 C129.56191635 -0.09245802 150.80640373 -0.10279274 172.05089569 -0.10614014 C173.42454211 -0.10636177 174.79818852 -0.10658355 176.17183493 -0.10680549 C177.54878542 -0.10702613 178.92573591 -0.10724661 180.30268639 -0.10746694 C183.06505342 -0.10790949 185.82742045 -0.1083566 188.58978748 -0.10880661 C189.2746931 -0.108916 189.95959872 -0.10902539 190.66525905 -0.1091381 C212.8727934 -0.11276864 235.0802951 -0.1286889 257.28781694 -0.15199697 C280.77055162 -0.17659837 304.25326101 -0.19030639 327.73601085 -0.19150805 C340.53539365 -0.19242514 353.3347337 -0.1981859 366.13410473 -0.21632767 C377.03253876 -0.23172052 387.93091684 -0.2368539 398.82935967 -0.22858956 C404.39003213 -0.22468023 409.95059187 -0.22562661 415.5112505 -0.23964691 C420.60338729 -0.25236853 425.69532647 -0.2512035 430.78746293 -0.2390562 C432.62799254 -0.2370962 434.46853606 -0.24019159 436.30904611 -0.24890056 C449.09573884 -0.30556628 460.48336015 -0.17474775 470.2287035 9.13142776 C475.65345154 15.17098058 478.47440615 20.78985206 478.4859724 29.06077671 C478.4924213 30.23062683 478.49887019 31.40047696 478.5055145 32.60577708 C478.5024173 33.88173769 478.49932009 35.15769829 478.49612904 36.47232437 C478.4998672 37.84877432 478.50446938 39.22522216 478.50985968 40.60166663 C478.5220846 44.37888508 478.52182982 48.15601492 478.51947093 51.93324864 C478.51906264 56.00903189 478.5301031 60.08478678 478.53958607 64.16055679 C478.55619415 72.14380929 478.56169552 80.12703225 478.56281082 88.11030058 C478.56376137 94.59988293 478.56787199 101.08945554 478.57421207 107.57903481 C478.59182381 125.98073438 478.60105103 144.38241063 478.59955113 162.78411869 C478.59943126 164.27196808 478.59943126 164.27196808 478.59930897 165.78987503 C478.59922721 166.78298656 478.59914544 167.77609809 478.59906121 168.79930391 C478.59824828 184.89453346 478.61738774 200.98966944 478.6455857 217.08487193 C478.6743149 233.61380339 478.68812598 250.14268923 478.68639815 266.6716463 C478.68573427 275.95040793 478.6912257 285.22907145 478.71275425 294.50781059 C478.73096649 302.40781889 478.73531303 310.30768461 478.7217354 318.20770482 C478.715206 322.23721654 478.71508737 326.26645471 478.7324419 330.2959404 C478.74817916 333.98793305 478.74530277 337.67943543 478.72787364 341.37141617 C478.72335639 343.33290818 478.73845597 345.29441544 478.75435293 347.25584823 C478.67467649 357.45773835 476.26457121 364.80902534 469.2912035 372.33845901 C461.95440684 378.71646974 453.89727551 380.2859905 444.457407 380.26285553 C443.67798185 380.26490816 442.89855669 380.2669608 442.0955126 380.26907563 C439.474107 380.2747467 436.85275393 380.27328825 434.23134327 380.27186966 C432.33674614 380.27445323 430.44214955 380.27746637 428.54755372 380.28087306 C423.33342992 380.28894721 418.11931989 380.29073286 412.90519059 380.29147053 C407.28471737 380.29332035 401.66425132 380.30086732 396.04378223 380.30760574 C383.75041148 380.32119242 371.45704398 380.32721427 359.16366696 380.3316164 C351.48910373 380.33437819 343.81454175 380.33861542 336.13997936 380.34312057 C314.89549065 380.35531355 293.65100327 380.36564827 272.40651131 380.36899567 C271.03286489 380.3692173 269.65921848 380.36943908 268.28557206 380.36966102 C266.90862158 380.36988166 265.53167109 380.37010214 264.1547206 380.37032247 C261.39235357 380.37076502 258.62998654 380.37121213 255.86761951 380.37166214 C254.84026109 380.37182623 254.84026109 380.37182623 253.79214795 380.37199363 C231.5846136 380.37562417 209.3771119 380.39154443 187.16959006 380.4148525 C163.68685538 380.4394539 140.20414599 380.45316192 116.72139615 380.45436358 C103.92201335 380.45528067 91.1226733 380.46104143 78.32330227 380.4791832 C67.42486824 380.49457605 56.52649016 380.49970943 45.62804732 380.49144509 C40.06737487 380.48753576 34.50681512 380.48848214 28.9461565 380.50250244 C23.8540197 380.51522406 18.76208053 380.51405903 13.66994407 380.50191173 C11.82941446 380.49995173 9.98887093 380.50304712 8.14836089 380.51175609 C-4.82574678 380.56925236 -15.75770758 380.23680746 -25.7712965 371.13142776 C-33.57454618 363.11142115 -34.35477911 354.15904617 -34.27923107 343.42976761 C-34.28384606 342.05072434 -34.29020299 340.671686 -34.29814005 339.29265785 C-34.31477464 335.52210657 -34.30661405 331.7519624 -34.29419518 327.98141003 C-34.2851228 323.9077109 -34.29912523 319.83408042 -34.31011486 315.76039505 C-34.32788138 307.78753646 -34.32406844 299.81482869 -34.3124643 291.84196424 C-34.30342289 285.3610266 -34.30220904 278.88013115 -34.30655956 272.399189 C-34.30717249 271.47603626 -34.30778543 270.55288352 -34.30841693 269.60175645 C-34.30969586 267.72626383 -34.31099272 265.85077122 -34.3123073 263.97527862 C-34.32370763 246.3976114 -34.31060798 228.8200277 -34.28910583 211.24237418 C-34.27123535 196.16693877 -34.27433961 181.09162658 -34.29278088 166.01619339 C-34.31419725 148.50050771 -34.32260904 130.98489517 -34.31033182 113.46919823 C-34.30905765 111.60068767 -34.30780017 109.73217711 -34.30655956 107.86366653 C-34.30563391 106.48472924 -34.30563391 106.48472924 -34.30468956 105.07793462 C-34.30123896 98.60638824 -34.30705874 92.13488834 -34.31647778 85.66334915 C-34.32770766 77.77437736 -34.32463693 69.88556473 -34.3033548 61.99661112 C-34.29285766 57.97316512 -34.28869959 53.94998428 -34.30195141 49.92654037 C-34.3139091 46.24020082 -34.30725783 42.55437111 -34.2860412 38.86807752 C-34.27948754 36.90972471 -34.29248104 34.95133624 -34.30627012 32.99302101 C-34.21585356 22.80090057 -31.80074355 15.44689753 -24.8337965 7.92439651 C-17.49699984 1.54638579 -9.43986851 -0.02313497 0 0 Z " fill="#77CF9F" transform="translate(33.77129650115967,65.86857223510742)"/>
<path d="M0 0 C1.16913773 -0.00307895 1.16913773 -0.00307895 2.3618944 -0.0062201 C4.9833 -0.01189117 7.60465307 -0.01043272 10.22606373 -0.00901413 C12.12066086 -0.0115977 14.01525745 -0.01461084 15.90985328 -0.01801753 C21.12397707 -0.02609168 26.3380871 -0.02787733 31.55221641 -0.028615 C37.17268962 -0.03046482 42.79315568 -0.03801179 48.41362476 -0.04475021 C60.70699552 -0.0583369 73.00036302 -0.06435874 85.29374003 -0.06876087 C92.96830327 -0.07152266 100.64286525 -0.07575989 108.31742764 -0.08026505 C129.56191635 -0.09245802 150.80640373 -0.10279274 172.05089569 -0.10614014 C173.42454211 -0.10636177 174.79818852 -0.10658355 176.17183493 -0.10680549 C177.54878542 -0.10702613 178.92573591 -0.10724661 180.30268639 -0.10746694 C183.06505342 -0.10790949 185.82742045 -0.1083566 188.58978748 -0.10880661 C189.2746931 -0.108916 189.95959872 -0.10902539 190.66525905 -0.1091381 C212.8727934 -0.11276864 235.0802951 -0.1286889 257.28781694 -0.15199697 C280.77055162 -0.17659837 304.25326101 -0.19030639 327.73601085 -0.19150805 C340.53539365 -0.19242514 353.3347337 -0.1981859 366.13410473 -0.21632767 C377.03253876 -0.23172052 387.93091684 -0.2368539 398.82935967 -0.22858956 C404.39003213 -0.22468023 409.95059187 -0.22562661 415.5112505 -0.23964691 C420.60338729 -0.25236853 425.69532647 -0.2512035 430.78746293 -0.2390562 C432.62799254 -0.2370962 434.46853606 -0.24019159 436.30904611 -0.24890056 C449.09573884 -0.30556628 460.48336015 -0.17474775 470.2287035 9.13142776 C476.69625675 16.33197038 478.54438029 22.70382143 478.424016 32.24861526 C478.42200184 33.00924271 478.41998768 33.76987015 478.41791248 34.55354691 C478.41178495 36.21443986 478.40059802 37.87532039 478.38484859 39.53614998 C478.3447374 44.00545694 478.31627451 48.47480862 478.28775501 52.94420242 C478.27918555 54.27182649 478.27918555 54.27182649 478.27044296 55.62627125 C478.256457 57.79465629 478.24257023 59.96304196 478.2287035 62.13142776 C429.13097911 63.46711519 380.01652561 63.34714497 330.90480636 63.42850888 C318.2319996 63.44968515 305.55920505 63.47606702 292.88640872 63.50267302 C270.29909693 63.54996198 247.71177971 63.59333464 225.12445545 63.63411331 C203.22406036 63.67366144 181.32367023 63.71512944 159.42328358 63.75911331 C158.7444828 63.76047584 158.06568202 63.76183837 157.36631153 63.76324219 C150.54757074 63.77693125 143.72883003 63.79065844 136.91008937 63.80441353 C80.01630463 63.91917884 23.12250913 64.02756768 -33.7712965 64.13142776 C-33.87076976 58.45724374 -33.94304899 52.78357626 -33.99102306 47.10872269 C-34.01103894 45.18154931 -34.03826033 43.2544359 -34.07305431 41.32747269 C-34.12201691 38.54452524 -34.14436567 35.76238621 -34.1619215 32.97908401 C-34.18256664 32.12871063 -34.20321178 31.27833725 -34.22448254 30.40219498 C-34.22776559 21.4897346 -30.84958522 14.41989252 -24.8337965 7.92439651 C-17.49699984 1.54638579 -9.43986851 -0.02313497 0 0 Z " fill="#EEE6E2" transform="translate(33.77129650115967,65.86857223510742)"/>
<path d="M0 0 C3.8640796 2.26804672 6.19007928 4.90386363 8 9 C8.60714646 13.77043647 8.08712797 16.39784622 5.3368454 20.31250381 C2.64702456 23.70785709 -0.44775182 26.70613486 -3.52246094 29.74951172 C-4.6498745 30.87736336 -4.6498745 30.87736336 -5.80006409 32.02799988 C-8.27345431 34.50000221 -10.75384232 36.96485411 -13.234375 39.4296875 C-14.95545345 41.14703391 -16.67608945 42.86482384 -18.39630127 44.58303833 C-22.91610294 49.09521865 -27.44187944 53.60135939 -31.96893311 58.10626221 C-36.59099037 62.70782884 -41.20736258 67.31509104 -45.82421875 71.921875 C-54.87726198 80.95349474 -63.93643672 89.97893818 -73 99 C-68.76497203 104.0599809 -64.33752055 108.79227683 -59.64941406 113.43237305 C-58.58490273 114.49228455 -58.58490273 114.49228455 -57.49888611 115.5736084 C-55.96949664 117.09588534 -54.43898212 118.61703267 -52.90744781 120.13715172 C-50.48410525 122.5430111 -48.06440375 124.95247805 -45.64569092 127.36299133 C-38.77244339 134.21185743 -31.89351633 141.05499839 -25.01025391 147.89379883 C-20.79107614 152.08622454 -16.57675725 156.28348356 -12.36540985 160.48377419 C-10.76129965 162.08167332 -9.15529407 163.67767204 -7.54737091 165.27173424 C-5.30469298 167.49523614 -3.06820583 169.72479317 -0.83300781 171.95581055 C-0.16702072 172.61303604 0.49896637 173.27026154 1.18513489 173.94740295 C1.7934465 174.55701874 2.40175812 175.16663452 3.02850342 175.79472351 C3.55719402 176.32027171 4.08588463 176.84581991 4.63059616 177.38729382 C7.14328188 180.34640908 7.95979479 182.5577427 8.3125 186.4375 C7.87414476 191.43474971 6.205439 193.68819873 2.875 197.3125 C-1.23230142 199.72330736 -4.36496164 199.91316311 -9 199 C-15.37925026 195.38915834 -20.56013934 189.72048706 -25.67919922 184.5637207 C-26.50620834 183.73860992 -27.33321747 182.91349915 -28.18528748 182.06338501 C-30.89665378 179.3557006 -33.6007917 176.64092409 -36.3046875 173.92578125 C-38.19381928 172.03545647 -40.08329353 170.14547976 -41.97317505 168.25590515 C-45.92206043 164.30608679 -49.86707368 160.35243499 -53.80957031 156.39624023 C-58.36539736 151.82464255 -62.92647585 147.25833849 -67.49056041 142.69498569 C-71.89157471 138.29458165 -76.289726 133.89132829 -80.68628311 129.48647118 C-82.55404736 127.61552141 -84.42242084 125.74517964 -86.29140854 123.87545204 C-88.89585776 121.26884103 -91.49699142 118.65896794 -94.09716797 116.0480957 C-94.87222183 115.27349503 -95.6472757 114.49889435 -96.44581604 113.70082092 C-97.15220718 112.99016479 -97.85859833 112.27950867 -98.58639526 111.5473175 C-99.20098036 110.93105657 -99.81556545 110.31479563 -100.44877434 109.67986012 C-103.28606479 106.60728906 -104.36232806 104.4257106 -104.5625 100.3125 C-104.62566406 99.50425781 -104.68882812 98.69601562 -104.75390625 97.86328125 C-102.73532737 90.19686511 -93.82271459 83.67902207 -88.3425293 78.21313477 C-87.50591263 77.37476578 -86.66929596 76.53639679 -85.80732727 75.67262268 C-83.06545301 72.92637782 -80.31997404 70.18377036 -77.57421875 67.44140625 C-75.66050162 65.52746606 -73.74738342 63.6129275 -71.83418274 61.69847107 C-67.83745705 57.69993359 -63.83864383 53.70349293 -59.83862305 49.70825195 C-55.21335812 45.08845013 -50.59173669 40.4650268 -45.97194737 35.83974987 C-41.99657638 31.85984612 -38.01926671 27.88188766 -34.04031879 23.90555996 C-31.66729265 21.53409283 -29.29494752 19.16195506 -26.92435265 16.78805733 C-24.28880698 14.1499848 -21.65009916 11.51511739 -19.01049805 8.88110352 C-17.83153458 7.6991037 -17.83153458 7.6991037 -16.62875366 6.4932251 C-15.9125032 5.77979446 -15.19625275 5.06636383 -14.45829773 4.33131409 C-13.83503947 3.70843286 -13.21178122 3.08555162 -12.56963634 2.4437952 C-8.94544139 -0.8898402 -4.67658126 -0.58355953 0 0 Z " fill="#FDFEFE" transform="translate(253,187)"/>
<path d="M0 0 C5.75168179 3.20747228 10.10672238 7.81772142 14.72753906 12.45288086 C15.58351685 13.30374771 16.43949463 14.15461456 17.32141113 15.03126526 C19.65554471 17.35391932 21.98513137 19.68100932 24.31226063 22.01067805 C26.25890294 23.95839366 28.20852164 25.90311664 30.15809035 27.84790236 C34.75683118 32.43557164 39.3502524 37.02851961 43.94042969 41.62475586 C48.67149123 46.36186613 53.41167706 51.08970384 58.15638566 55.81314176 C62.2366593 59.87579652 66.31109906 63.94423796 70.38094497 68.01733881 C72.80885584 70.44706104 75.23892973 72.87451429 77.67469025 75.29636955 C80.38829515 77.99505856 83.08969238 80.70576612 85.79003906 83.41772461 C86.59628723 84.21632904 87.4025354 85.01493347 88.23321533 85.83773804 C89.33500122 86.95004539 89.33500122 86.95004539 90.45904541 88.08482361 C91.09835117 88.72396163 91.73765694 89.36309965 92.3963356 90.02160549 C95.11232819 93.3722472 96.40577507 96.87858842 96.1875 101.1875 C94.11498018 113.42634142 76.22528411 125.93907662 67.796875 134.37109375 C66.02802435 136.14316222 64.25924708 137.91530394 62.49053955 139.68751526 C58.80080167 143.38321244 55.10903176 147.07686595 51.41601562 150.76928711 C47.15527257 155.02993819 42.89966599 159.29565122 38.64684176 163.56420463 C34.53511451 167.69059177 30.41786202 171.81142878 26.29850006 175.93019295 C24.55377868 177.67609386 22.81067741 179.42361535 21.06923676 181.17278862 C18.64039243 183.61141757 16.20530986 186.04364457 13.76855469 188.47436523 C12.69463974 189.55670944 12.69463974 189.55670944 11.59902954 190.66091919 C2.79342846 199.41114541 2.79342846 199.41114541 -3.4375 199.5 C-6.81107644 199.38754745 -8.78676738 198.85499355 -11.4375 196.75 C-14.07855841 193.91569342 -15.72995366 191.85071758 -16.29296875 187.9921875 C-15.65116321 175.10853545 1.79078622 163.08142726 10.41015625 154.4921875 C11.9893502 152.9148621 13.56832093 151.3373132 15.14707947 149.759552 C19.27279648 145.63762577 23.40150927 141.51871333 27.53088379 137.40045166 C31.75615016 133.18547393 35.97853412 128.96761083 40.20117188 124.75 C48.4646521 116.49719633 56.7313046 108.24757822 65 100 C60.7674156 94.94128631 56.34125847 90.2160878 51.64941406 85.58349609 C50.93973984 84.87849472 50.23006561 84.17349335 49.49888611 83.4471283 C47.96946914 81.92815287 46.43895548 80.410281 44.90744781 78.89341354 C42.48374179 76.4918455 40.0641233 74.08622981 37.64569092 71.67935181 C30.77339006 64.84054814 23.89691171 58.00598882 17.01025391 51.18164062 C12.78888151 46.99788752 8.57483244 42.80687757 4.36540985 38.61110306 C2.76218204 37.01592985 1.1561814 35.42353846 -0.45262909 33.83399582 C-2.69766575 31.61540027 -4.93328501 29.38770838 -7.16699219 27.15771484 C-8.16597282 26.17726952 -8.16597282 26.17726952 -9.18513489 25.17701721 C-12.85833212 21.48764426 -15.80743757 18.38909877 -16.1171875 12.9375 C-15.52839163 8.22713308 -14.52275845 5.4221082 -11 2 C-7.51335549 -0.52481154 -4.20248882 -0.43474022 0 0 Z " fill="#FDFEFD" transform="translate(373,187)"/>
<path d="M0 0 C4.5613976 1.86602629 6.74794145 4.66270205 9 9 C9.51885064 15.13352071 8.08785719 20.5175323 6.5546875 26.39453125 C6.28103363 27.47381897 6.00737976 28.55310669 5.72543335 29.6651001 C4.94815831 32.72811075 4.16393084 35.78925788 3.37776184 38.84999466 C1.9488085 44.42784155 0.54303721 50.01161746 -0.86573792 55.59458733 C-1.26730579 57.18584007 -1.66915761 58.77702118 -2.0712738 60.36813545 C-6.31882991 77.18109516 -10.46583686 94.01863615 -14.6015625 110.859375 C-14.76792473 111.53671118 -14.93428697 112.21404735 -15.10569048 112.91190886 C-18.16655182 125.37429292 -21.22376507 137.83757153 -24.27966654 150.30117261 C-24.44698169 150.98357185 -24.61429683 151.66597108 -24.78668213 152.36904907 C-24.95324794 153.04839339 -25.11981375 153.72773771 -25.29142702 154.42766821 C-26.75455514 160.3946209 -28.21919785 166.36120112 -29.68421555 172.32769012 C-30.58457393 175.99659348 -31.48319707 179.66591887 -32.38174438 183.33526611 C-33.68530722 188.65535596 -35.00544285 193.9711345 -36.33195496 199.28554153 C-36.94402082 201.77254054 -37.53064744 204.26388256 -38.10852051 206.75900269 C-38.43426489 208.1082274 -38.76036057 209.45736737 -39.08691406 210.80639648 C-39.34249084 211.90684799 -39.59806763 213.0072995 -39.86138916 214.14109802 C-41.47942413 218.20377089 -44.07049213 221.03524607 -48 223 C-52.21226823 223.43032996 -55.91059104 223.42629046 -59.875 221.875 C-63.41715119 218.74957248 -64.86460765 215.69206147 -65.2409668 210.98852539 C-64.92487635 205.75653999 -63.67560478 200.98645459 -62.33203125 195.93359375 C-62.05534103 194.86367691 -61.77865082 193.79376007 -61.49357605 192.69142151 C-60.60783038 189.27132321 -59.71084635 185.85430803 -58.8125 182.4375 C-57.64778247 177.97904261 -56.48815911 173.51928594 -55.33203125 169.05859375 C-55.04651398 167.95880692 -54.7609967 166.85902008 -54.46682739 165.72590637 C-52.40121769 157.71006829 -50.5157603 149.66466936 -48.71455383 141.58581543 C-46.97937591 133.82100961 -45.03356074 126.12948482 -43 118.4375 C-40.56906702 109.21280107 -38.25983977 99.97179063 -36.06678772 90.68778992 C-34.28078526 83.1413707 -32.44312824 75.60828485 -30.58984375 68.078125 C-30.14410507 66.26671776 -30.14410507 66.26671776 -29.68936157 64.41871643 C-28.46336484 59.43955647 -27.23598746 54.46073731 -26.00854492 49.48193359 C-25.39622685 46.99741299 -24.78430337 44.51279509 -24.17279053 42.02807617 C-23.58216802 39.62887102 -22.99043631 37.22993862 -22.39752197 34.83129883 C-21.14962622 29.76640002 -19.91792711 24.70160706 -18.78613281 19.609375 C-18.60909317 18.81964294 -18.43205353 18.02991089 -18.24964905 17.21624756 C-17.80285481 15.20115345 -17.3689114 13.18322112 -16.9362793 11.16503906 C-15.56546357 6.53107424 -13.61909417 4.14703841 -10 1 C-6.8017988 -0.5991006 -3.4787562 -0.36195151 0 0 Z " fill="#FDFEFE" transform="translate(337,175)"/>
<path d="M0 0 C0.79059311 -0.0049649 1.58118622 -0.00992981 2.39573669 -0.01504517 C5.01277536 -0.02965699 7.6297534 -0.03646739 10.24682617 -0.04199219 C12.06662498 -0.04774474 13.88642376 -0.05350246 15.70622253 -0.05926514 C19.52355227 -0.06977254 23.34086096 -0.07561682 27.15820312 -0.07910156 C32.04409959 -0.08458369 36.92971701 -0.10860678 41.81552601 -0.13707352 C45.57566636 -0.15571939 49.33573979 -0.16090655 53.09592247 -0.16243744 C54.89681205 -0.16546043 56.69770055 -0.17347704 58.49854469 -0.18662262 C61.0213796 -0.20372289 63.54353652 -0.20179323 66.06640625 -0.1953125 C67.1771199 -0.20913467 67.1771199 -0.20913467 68.31027222 -0.22323608 C73.01662526 -0.18546203 76.22370626 0.68830085 80.22729492 3.16113281 C82.61428777 6.30762338 82.69980858 9.30227128 82.22729492 13.16113281 C80.42735718 15.86103943 79.14352192 17.70301931 76.22729492 19.16113281 C73.5382723 19.26991103 70.87475385 19.31845542 68.18505859 19.32226562 C66.93845711 19.32971298 66.93845711 19.32971298 65.66667175 19.33731079 C62.90952738 19.35194943 60.15244057 19.35873759 57.39526367 19.36425781 C55.481959 19.3700083 53.56865436 19.37576605 51.65534973 19.38153076 C47.6395338 19.39204589 43.62373792 19.39788506 39.60791016 19.40136719 C34.46294089 19.40684996 29.31823654 19.4308712 24.17335033 19.45933914 C20.21937793 19.47796728 16.26546926 19.48317124 12.31145668 19.48470306 C10.41484442 19.48773023 8.51823329 19.49576089 6.62166405 19.50888824 C3.96680977 19.5259508 1.31260177 19.52406792 -1.34228516 19.51757812 C-2.1253302 19.52679291 -2.90837524 19.53600769 -3.71514893 19.54550171 C-8.24939044 19.510796 -11.16307958 18.96242839 -14.77270508 16.16113281 C-16.27681931 14.0123982 -16.73392251 12.34535002 -17.27270508 9.78613281 C-16.51460934 5.80613017 -13.92406426 3.58407564 -10.77270508 1.16113281 C-7.13417834 -0.05170943 -3.78862816 0.00567298 0 0 Z " fill="#5DAD90" transform="translate(59.772705078125,287.8388671875)"/>
<path d="M0 0 C-0.33 0.99 -0.66 1.98 -1 3 C-4.5625 4.1875 -4.5625 4.1875 -8 5 C-6.35 5.33 -4.7 5.66 -3 6 C-3 6.66 -3 7.32 -3 8 C-3.99 8.33 -4.98 8.66 -6 9 C0.27 9 6.54 9 13 9 C9 13 9 13 1 14 C11.89 14.495 11.89 14.495 23 15 C21.68 15.66 20.36 16.32 19 17 C18.40748444 17.36493057 17.81496887 17.72986115 17.20449829 18.10585022 C14.01619365 19.39903421 11.16164387 19.27853183 7.72802734 19.30639648 C6.63933853 19.31888176 6.63933853 19.31888176 5.52865601 19.33161926 C3.13102834 19.35569551 0.73367323 19.36449068 -1.6640625 19.37109375 C-3.33832884 19.38006567 -5.01259439 19.38918761 -6.68685913 19.39845276 C-10.19897404 19.41494151 -13.71099368 19.42264199 -17.22314453 19.42553711 C-21.70196003 19.43090448 -26.17986654 19.46851591 -30.65842628 19.51428127 C-34.11936622 19.54418138 -37.58009134 19.55126354 -41.04114914 19.55226326 C-42.69083165 19.55644407 -44.34051607 19.56879159 -45.99007034 19.58978081 C-56.71272037 19.71529626 -64.92183221 18.89218383 -73.5625 11.9375 C-75.05577063 9.92483089 -75.64747347 8.46768569 -76 6 C-70.55634324 4.25802984 -66.09355531 4.45322234 -61 7 C-66.94 7.495 -66.94 7.495 -73 8 C-73 8.66 -73 9.32 -73 10 C-45.60223358 7.22140588 -45.60223358 7.22140588 -18.6796875 1.62890625 C-12.54593677 0.18935251 -6.2871048 -0.16545013 0 0 Z " fill="#5BB293" transform="translate(82,426)"/>
<path d="M0 0 C0.77870956 -0.00004028 1.55741913 -0.00008057 2.35972595 -0.00012207 C3.99779377 0.00521523 5.6358625 0.02272133 7.27368164 0.05175781 C9.77374868 0.0936897 12.2711241 0.09281539 14.77148438 0.0859375 C16.3685082 0.09642902 17.96551823 0.10936693 19.5625 0.125 C20.3053273 0.12520142 21.0481546 0.12540283 21.81349182 0.12561035 C26.27426811 0.22686419 29.1808632 0.82366392 32.71484375 3.59375 C34.81122076 6.73831551 35.0804082 8.75469676 35.37109375 12.4609375 C34.30555925 15.92392463 31.73962642 17.81981542 28.71484375 19.59375 C25.86340837 20.27018425 23.13091366 20.25027073 20.2109375 20.1875 C19.41003189 20.18754028 18.60912628 20.18758057 17.78395081 20.18762207 C16.09880685 20.18228365 14.4136621 20.16477276 12.72875977 20.13574219 C10.1562868 20.09381427 7.58642974 20.09468413 5.01367188 20.1015625 C3.37107565 20.09107096 1.72849284 20.07813304 0.0859375 20.0625 C-0.67876358 20.06229858 -1.44346466 20.06209717 -2.2313385 20.06188965 C-6.74793746 19.96221542 -9.67729539 19.3573996 -13.28515625 16.59375 C-15.33946206 13.97917897 -15.28515625 12.53020571 -15.28515625 9.15625 C-13.08246214 1.30915223 -7.46160307 -0.16513829 0 0 Z " fill="#81C49A" transform="translate(58.28515625,169.40625)"/>
<path d="M0 0 C1.3366571 -0.00861053 1.3366571 -0.00861053 2.70031738 -0.01739502 C4.57969716 -0.02146828 6.45916249 -0.01046359 8.33837891 0.01464844 C11.2105922 0.04678373 14.07717987 0.01494164 16.94921875 -0.0234375 C18.77865822 -0.01947247 20.60809419 -0.01178474 22.4375 0 C23.72049988 -0.01821808 23.72049988 -0.01821808 25.02941895 -0.0368042 C30.83038639 0.09959858 30.83038639 0.09959858 33.39012146 2.10873413 C35.26398955 4.27750992 36.59747571 6.14776879 37.12890625 8.9921875 C37.01417969 9.62898438 36.89945313 10.26578125 36.78125 10.921875 C36.64396484 11.88480469 36.64396484 11.88480469 36.50390625 12.8671875 C35.34746089 15.7093965 34.18447797 16.91893286 31.71875 18.796875 C28.73328996 19.39858356 25.79120125 19.35745023 22.75390625 19.328125 C21.88358261 19.3319519 21.01325897 19.33577881 20.11656189 19.33972168 C18.27829836 19.34244017 16.43999611 19.33508335 14.60180664 19.31835938 C11.79420248 19.29697366 8.98916462 19.31814873 6.18164062 19.34375 C4.39322354 19.34110621 2.60480804 19.33598016 0.81640625 19.328125 C-0.02019028 19.33622192 -0.8567868 19.34431885 -1.71873474 19.35266113 C-5.76571807 19.28786841 -7.79744727 19.10394059 -11.29467773 16.88427734 C-13.31328898 14.76320985 -14.04980121 13.78496363 -14.40625 10.921875 C-14.51195313 10.28507812 -14.61765625 9.64828125 -14.7265625 8.9921875 C-13.05422592 0.74786157 -7.16869889 -0.10179262 0 0 Z " fill="#389787" transform="translate(105.28125,384.203125)"/>
<path d="M0 0 C0.86890869 -0.00336868 1.73781738 -0.00673737 2.63305664 -0.01020813 C4.4653924 -0.00990987 6.29777874 0.00528404 8.12988281 0.03442383 C10.92928834 0.07410236 13.72395399 0.05512691 16.5234375 0.02929688 C18.30730998 0.03685651 20.09117198 0.0478105 21.875 0.0625 C23.12518921 0.05202385 23.12518921 0.05202385 24.40063477 0.04133606 C28.7550741 0.14675844 30.44252691 0.36657921 33.96240234 3.17651367 C35.87496122 5.67986174 36.62462646 6.68024617 36.5625 9.76171875 C36.57539062 10.40109375 36.58828125 11.04046875 36.6015625 11.69921875 C35.51216911 15.08274644 33.69440896 16.55489516 30.9375 18.76171875 C27.98418356 19.47757346 25.1211441 19.44008105 22.09375 19.390625 C20.82368103 19.39424294 20.82368103 19.39424294 19.5279541 19.39793396 C17.74270939 19.39695706 15.9574338 19.38360072 14.17236328 19.35864258 C11.4458892 19.32432435 8.72265688 19.3379921 5.99609375 19.35742188 C4.25779876 19.35052308 2.5195121 19.3408504 0.78125 19.328125 C-0.43612854 19.3355648 -0.43612854 19.3355648 -1.67810059 19.34315491 C-6.7121749 19.23884771 -9.41744553 18.55742836 -13.0625 14.76171875 C-13.9453125 12.83203125 -13.9453125 12.83203125 -14.1875 10.88671875 C-14.29320312 10.24992187 -14.39890625 9.613125 -14.5078125 8.95703125 C-12.85604697 0.81411695 -7.09958681 -0.13017911 0 0 Z " fill="#71B995" transform="translate(57.0625,253.23828125)"/>
<path d="M0 0 C1.18916016 -0.02900391 2.37832031 -0.05800781 3.60351562 -0.08789062 C4.75142578 -0.09626953 5.89933594 -0.10464844 7.08203125 -0.11328125 C8.13237549 -0.12786377 9.18271973 -0.14244629 10.26489258 -0.1574707 C13.90916875 0.42854814 15.55523981 1.77983725 18.1875 4.3125 C19.73774464 7.41298928 19.47742015 9.89144218 19.1875 13.3125 C17.39187595 16.06579021 16.13495078 17.83877461 13.1875 19.3125 C8.92319552 19.63701599 4.65011803 19.63701551 0.375 19.6875 C-0.81416016 19.72488281 -2.00332031 19.76226562 -3.22851562 19.80078125 C-11.99837568 19.88941543 -11.99837568 19.88941543 -16.0703125 17.00390625 C-18.29025626 13.57444156 -18.88430352 11.40530055 -18.8125 7.3125 C-14.18531359 -1.30364021 -8.96457223 0.07217852 0 0 Z " fill="#5DD0A0" transform="translate(165.8125,89.6875)"/>
<path d="M0 0 C1.71219727 -0.0309375 1.71219727 -0.0309375 3.45898438 -0.0625 C4.56177734 -0.06765625 5.66457031 -0.0728125 6.80078125 -0.078125 C7.80923096 -0.0874707 8.81768066 -0.09681641 9.85668945 -0.10644531 C13.17771569 0.31172617 15.00773763 1.270831 17.6875 3.25 C19.82248775 6.45248163 19.96144539 7.06000694 19.625 10.6875 C19.57214844 11.44933594 19.51929688 12.21117188 19.46484375 12.99609375 C18.33702467 16.26620233 16.53288894 17.34496332 13.6875 19.25 C10.8125 19.76757812 10.8125 19.76757812 7.6875 19.78125 C6.553125 19.78640625 5.41875 19.7915625 4.25 19.796875 C3.074375 19.78140625 1.89875 19.7659375 0.6875 19.75 C-1.0759375 19.77320313 -1.0759375 19.77320313 -2.875 19.796875 C-4.009375 19.79171875 -5.14375 19.7865625 -6.3125 19.78125 C-7.859375 19.77448242 -7.859375 19.77448242 -9.4375 19.76757812 C-13.02531836 19.12167333 -14.71452485 17.75886177 -17.3125 15.25 C-18.47362464 12.25890012 -18.61919831 9.43625468 -18.3125 6.25 C-13.75613291 -1.29157312 -8.01753399 0.03585258 0 0 Z " fill="#FED56A" transform="translate(113.3125,89.75)"/>
<path d="M0 0 C1.71219727 -0.0309375 1.71219727 -0.0309375 3.45898438 -0.0625 C4.56177734 -0.06765625 5.66457031 -0.0728125 6.80078125 -0.078125 C7.80923096 -0.0874707 8.81768066 -0.09681641 9.85668945 -0.10644531 C13.80202115 0.39033643 16.5954097 1.86006689 19.0625 5 C20.00447802 8.39112087 19.53502199 10.85991203 18.6875 14.25 C16.79638889 16.5681362 15.34921969 17.91914015 12.6875 19.25 C8.58945531 19.54695976 4.4825376 19.52806005 0.375 19.5625 C-0.76646484 19.59150391 -1.90792969 19.62050781 -3.08398438 19.65039062 C-11.52047241 19.71449018 -11.52047241 19.71449018 -15.54296875 17.35546875 C-18.66267235 13.64350355 -18.72147589 11.07591547 -18.3125 6.25 C-13.4614545 -1.18826977 -8.2102839 0.03671452 0 0 Z " fill="#ED50A0" transform="translate(61.3125,89.75)"/>
<path d="M0 0 C1.24072266 -0.02449219 2.48144531 -0.04898438 3.75976562 -0.07421875 C4.95150391 -0.07808594 6.14324219 -0.08195313 7.37109375 -0.0859375 C8.46220459 -0.09415527 9.55331543 -0.10237305 10.67749023 -0.11083984 C14.24696377 0.4902647 15.38759695 1.53082271 17.5625 4.375 C18.63544173 8.30911967 18.98229521 10.43046078 17.3125 14.1875 C15.09367346 16.96103318 13.48557445 18.26819026 9.91455078 18.68139648 C6.50510972 18.75127289 3.09764495 18.79591011 -0.3125 18.8125 C-1.49714844 18.84537109 -2.68179688 18.87824219 -3.90234375 18.91210938 C-13.62909382 18.9724218 -13.62909382 18.9724218 -16.6953125 16.03515625 C-18.71828873 12.94626205 -19.4375 11.07319033 -19.4375 7.375 C-15.44512287 -1.40822968 -8.45351569 0.00875558 0 0 Z " fill="#5CAC90" transform="translate(123.4375,253.625)"/>
<path d="M0 0 C1.23234375 -0.03287109 2.4646875 -0.06574219 3.734375 -0.09960938 C13.84894692 -0.15994576 13.84894692 -0.15994576 16.9375 2.71484375 C19.30841454 6.54013874 19.30841454 6.54013874 19.25 9.4375 C19.26289062 10.076875 19.27578125 10.71625 19.2890625 11.375 C18.19366402 14.77717882 16.74990475 16.78870468 13.625 18.4375 C9.11685485 19.21540318 4.68976075 19.18031586 0.125 19.125 C-1.09832031 19.15271484 -2.32164063 19.18042969 -3.58203125 19.20898438 C-12.23561742 19.1853407 -12.23561742 19.1853407 -15.31665039 17.16308594 C-17.51785656 14.6440711 -18.35059352 12.61183199 -18.8125 9.3125 C-18.38736223 6.51873751 -17.95399473 4.7644396 -16.375 2.4375 C-11.42451776 -0.86282149 -5.81760411 0.02721332 0 0 Z " fill="#4AA38C" transform="translate(61.375,384.5625)"/>
<path d="M0 0 C1.60875 0.02030273 1.60875 0.02030273 3.25 0.04101562 C5.83392162 0.07562172 8.41664553 0.12440454 11 0.1875 C9.5 2.125 9.5 2.125 7 4.1875 C4.36 4.5175 1.72 4.8475 -1 5.1875 C9.89 5.6825 9.89 5.6825 21 6.1875 C19.68 6.8475 18.36 7.5075 17 8.1875 C16.4022023 8.55373978 15.8044046 8.91997955 15.18849182 9.2973175 C12.07232448 10.56483772 9.34216635 10.43421431 5.98413086 10.43041992 C5.28610855 10.43231827 4.58808624 10.43421661 3.86891174 10.43617249 C1.56744057 10.4398696 -0.73371325 10.4291919 -3.03515625 10.41796875 C-4.63650984 10.41677629 -6.23786413 10.41632393 -7.83921814 10.4165802 C-11.19241729 10.41501721 -14.54550941 10.40674108 -17.89868164 10.39331055 C-22.19846758 10.3763073 -26.49813608 10.37249673 -30.7979517 10.37325573 C-34.10331851 10.37298394 -37.40865961 10.36750142 -40.71401787 10.36025429 C-42.29966474 10.35707085 -43.88531453 10.35510097 -45.47096443 10.35436058 C-47.68520201 10.35219436 -49.89931463 10.34344441 -52.11352539 10.33276367 C-53.373871 10.32895187 -54.63421661 10.32514008 -55.93275452 10.32121277 C-59 10.1875 -59 10.1875 -62 9.1875 C-62 8.5275 -62 7.8675 -62 7.1875 C-61.08412109 7.08203857 -60.16824219 6.97657715 -59.22460938 6.86791992 C-55.74245108 6.4641946 -52.26096597 6.05534883 -48.77978516 5.64331055 C-47.28880505 5.46783538 -45.79760046 5.29425454 -44.30615234 5.12280273 C-36.37284771 4.20948171 -28.5466187 3.15400589 -20.71875 1.5625 C-13.76102259 0.17008166 -7.08427048 -0.17620316 0 0 Z " fill="#369687" transform="translate(84,434.8125)"/>
<path d="M0 0 C1.28390625 0.15275391 1.28390625 0.15275391 2.59375 0.30859375 C3.2228125 0.39238281 3.851875 0.47617187 4.5 0.5625 C4.5 1.2225 4.5 1.8825 4.5 2.5625 C-14.19935693 7.8401122 -33.11912248 9.91348678 -52.5 10.5625 C-52.5 11.2225 -52.5 11.8825 -52.5 12.5625 C-51.51 12.8925 -50.52 13.2225 -49.5 13.5625 C-56.02307692 12.94711538 -56.02307692 12.94711538 -58.4375 11 C-58.9634375 10.2884375 -58.9634375 10.2884375 -59.5 9.5625 C-57.02030504 7.08280504 -55.93988143 7.18823911 -52.50390625 6.8515625 C-51.479021 6.74312012 -50.45413574 6.63467773 -49.39819336 6.52294922 C-48.29741455 6.41225098 -47.19663574 6.30155273 -46.0625 6.1875 C-37.14224136 5.21521935 -28.43669534 3.93389045 -19.69165039 1.92041016 C-13.11964306 0.40847989 -6.77277318 -0.84659665 0 0 Z " fill="#48A38D" transform="translate(74.5,431.4375)"/>
<path d="M0 0 C1.12148438 0.00322266 2.24296875 0.00644531 3.3984375 0.00976562 C4.5740625 0.01814453 5.7496875 0.02652344 6.9609375 0.03515625 C8.14429687 0.03966797 9.32765625 0.04417969 10.546875 0.04882812 C13.47661257 0.06064158 16.40625022 0.07711367 19.3359375 0.09765625 C9.3359375 5.09765625 -0.6640625 10.09765625 -10.6640625 15.09765625 C-12.21430714 11.99716697 -11.95398265 9.51871407 -11.6640625 6.09765625 C-8.21072619 0.80254058 -6.13208583 -0.03097013 0 0 Z " fill="#E380C7" transform="translate(54.6640625,89.90234375)"/>
<path d="M0 0 C-1.33333333 0.66666667 -2.66666667 1.33333333 -4 2 C-4.58344177 2.3485202 -5.16688354 2.69704041 -5.76800537 3.05612183 C-8.62210797 4.26308044 -10.86470109 4.24006428 -13.96191406 4.22705078 C-15.76332855 4.22682419 -15.76332855 4.22682419 -17.60113525 4.22659302 C-18.89291687 4.21627045 -20.18469849 4.20594788 -21.515625 4.1953125 C-22.85512073 4.19158034 -24.19461921 4.18873432 -25.53411865 4.18673706 C-29.05228265 4.17911657 -32.5702804 4.15948187 -36.08837891 4.1373291 C-39.68129223 4.11683643 -43.27423253 4.10772804 -46.8671875 4.09765625 C-53.91152617 4.07623434 -60.95575221 4.04211765 -68 4 C-68 3.67 -68 3.34 -68 3 C-45.09156414 0.08677777 -23.09099005 -1.66695456 0 0 Z " fill="#268981" transform="translate(105,441)"/>
<path d="M0 0 C1.54010742 0.03383789 1.54010742 0.03383789 3.11132812 0.06835938 C5.6382179 0.12712425 8.16210255 0.20922151 10.6875 0.3125 C7.76787313 2.63330544 4.82536684 4.3606472 1.484375 6.01171875 C0.5046875 6.49833984 -0.475 6.98496094 -1.484375 7.48632812 C-3.00804687 8.2355957 -3.00804687 8.2355957 -4.5625 9 C-5.59375 9.51111328 -6.625 10.02222656 -7.6875 10.54882812 C-10.22739782 11.80701825 -12.76908991 13.06142921 -15.3125 14.3125 C-15.9725 13.6525 -16.6325 12.9925 -17.3125 12.3125 C-17.23695854 8.30880278 -16.73018342 5.92404492 -14.4609375 2.6015625 C-9.78138301 -0.80069424 -5.62552893 -0.23394714 0 0 Z " fill="#82DDA5" transform="translate(164.3125,89.6875)"/>
<path d="M0 0 C0.33 0.33 0.66 0.66 1 1 C0.85536962 4.832705 0.64541267 7.22632351 -1.84765625 10.21484375 C-6.58478887 12.89745788 -10.97238344 12.42766223 -16.3125 12.25 C-17.85260742 12.22292969 -17.85260742 12.22292969 -19.42382812 12.1953125 C-21.95017885 12.14831063 -24.47460469 12.08262272 -27 12 C-22.94733675 8.83643274 -18.63969764 6.61764291 -14.0625 4.3125 C-13.26392578 3.89677734 -12.46535156 3.48105469 -11.64257812 3.05273438 C-10.86462891 2.66021484 -10.08667969 2.26769531 -9.28515625 1.86328125 C-8.58269775 1.50532471 -7.88023926 1.14736816 -7.15649414 0.77856445 C-4.63479567 -0.13185063 -2.66202842 -0.20760366 0 0 Z " fill="#30C099" transform="translate(184,97)"/>
<path d="M0 0 C0.66 0.33 1.32 0.66 2 1 C1.67 1.66 1.34 2.32 1 3 C1.66 3 2.32 3 3 3 C2.63681592 9.41625207 2.63681592 9.41625207 0.125 11.71875 C-4.50803524 13.61829445 -8.86080134 13.31719526 -13.8125 13.1875 C-15.28106445 13.16719727 -15.28106445 13.16719727 -16.77929688 13.14648438 C-19.18676625 13.11125312 -21.59309564 13.06199265 -24 13 C-19.62425715 9.55699776 -14.83603986 7.23402845 -9.875 4.75 C-8.49634766 4.04230469 -8.49634766 4.04230469 -7.08984375 3.3203125 C-6.21199219 2.87945312 -5.33414063 2.43859375 -4.4296875 1.984375 C-3.62772949 1.57928711 -2.82577148 1.17419922 -1.99951172 0.75683594 C-1.33967285 0.50708008 -0.67983398 0.25732422 0 0 Z " fill="#F33289" transform="translate(77,96)"/>
<path d="M0 0 C0.33 1.32 0.66 2.64 1 4 C3.97 4.33 6.94 4.66 10 5 C7 8 7 8 4 9 C11.57353923 9.29472499 18.48017865 7.88887929 25.8671875 6.33398438 C31.62635021 5.19730752 36.21775732 4.9158295 42 6 C33.63478274 10.68452167 24.05097323 10.89878753 14.72070312 11.85546875 C13.63080078 11.97535156 12.54089844 12.09523438 11.41796875 12.21875 C9.92946411 12.3724707 9.92946411 12.3724707 8.41088867 12.52929688 C5.8268218 12.8008411 5.8268218 12.8008411 4 15 C-0.59225513 5.77448747 -0.59225513 5.77448747 0 0 Z " fill="#86D1A0" transform="translate(0,417)"/>
<path d="M0 0 C-2.36649526 2.6612752 -4.77133346 4.04856907 -7.96484375 5.59375 C-9.41213867 6.30337891 -9.41213867 6.30337891 -10.88867188 7.02734375 C-11.89478516 7.51332031 -12.90089844 7.99929687 -13.9375 8.5 C-15.92761323 9.46498095 -17.91596687 10.43360115 -19.90234375 11.40625 C-20.78398193 11.83228516 -21.66562012 12.25832031 -22.57397461 12.69726562 C-24.91154284 13.95250001 -26.92694273 15.35046408 -29 17 C-29.66 15.68 -30.32 14.36 -31 13 C-27.95888251 11.39479066 -24.91700767 9.79102164 -21.875 8.1875 C-21.0190625 7.73568359 -20.163125 7.28386719 -19.28125 6.81835938 C-17.60994783 5.9377117 -15.93729069 5.05962995 -14.26318359 4.18432617 C-12.36924724 3.19322744 -10.48081244 2.19162497 -8.59375 1.1875 C-5.55278686 -0.20474819 -3.3071487 -0.23622491 0 0 Z " fill="#EA61AE" transform="translate(76,91)"/>
<path d="M0 0 C0.763125 0.20625 1.52625 0.4125 2.3125 0.625 C2.6425 1.945 2.9725 3.265 3.3125 4.625 C2.43239258 4.57537109 1.55228516 4.52574219 0.64550781 4.47460938 C-2.95048242 4.63686619 -4.8549344 5.37139412 -8.015625 7.03125 C-9.46195313 7.77568359 -9.46195313 7.77568359 -10.9375 8.53515625 C-12.4225 9.32212891 -12.4225 9.32212891 -13.9375 10.125 C-15.92016064 11.15954216 -17.9044554 12.19096062 -19.890625 13.21875 C-21.20015137 13.91000977 -21.20015137 13.91000977 -22.53613281 14.61523438 C-24.6875 15.625 -24.6875 15.625 -26.6875 15.625 C-25.26952148 12.06709445 -23.83617644 10.82367242 -20.44140625 9.1171875 C-19.18553711 8.47330078 -19.18553711 8.47330078 -17.90429688 7.81640625 C-17.02837891 7.38199219 -16.15246094 6.94757813 -15.25 6.5 C-13.52151393 5.62362052 -11.79362406 4.7460639 -10.06640625 3.8671875 C-8.91507202 3.29266846 -8.91507202 3.29266846 -7.74047852 2.70654297 C-2.05787652 -0.28714556 -2.05787652 -0.28714556 0 0 Z " fill="#49C99D" transform="translate(181.6875,93.375)"/>
<path d="M0 0 C0.33 2.31 0.66 4.62 1 7 C0.67 6.01 0.34 5.02 0 4 C-1.32 4.33 -2.64 4.66 -4 5 C-3.67 4.01 -3.34 3.02 -3 2 C-3.71655762 2.36351563 -4.43311523 2.72703125 -5.17138672 3.1015625 C-8.40384658 4.73851669 -11.63936636 6.36932879 -14.875 8 C-16.00292969 8.57234375 -17.13085938 9.1446875 -18.29296875 9.734375 C-19.36933594 10.27578125 -20.44570313 10.8171875 -21.5546875 11.375 C-22.54968262 11.87773438 -23.54467773 12.38046875 -24.56982422 12.8984375 C-27 14 -27 14 -29 14 C-29 13.34 -29 12.68 -29 12 C-25.35856844 10.11752317 -21.71071834 8.24820514 -18.05639648 6.39086914 C-16.81399758 5.75709152 -15.57341674 5.1197368 -14.3347168 4.47875977 C-12.55478262 3.55849744 -10.76770675 2.65208974 -8.98046875 1.74609375 C-7.90692139 1.19622803 -6.83337402 0.6463623 -5.72729492 0.07983398 C-3 -1 -3 -1 0 0 Z " fill="#F24193" transform="translate(80,95)"/>
<path d="M0 0 C-0.99 0.33 -1.98 0.66 -3 1 C-8.20479277 3.01039844 -13.17952987 5.42284617 -18.1875 7.875 C-19.10208984 8.30941406 -20.01667969 8.74382812 -20.95898438 9.19140625 C-21.83232422 9.62066406 -22.70566406 10.04992187 -23.60546875 10.4921875 C-24.40106201 10.87745605 -25.19665527 11.26272461 -26.01635742 11.65966797 C-28.29110558 13.1966978 -29.00663257 14.47562298 -30 17 C-30.66 16.34 -31.32 15.68 -32 15 C-32 14.01 -32 13.02 -32 12 C-28.41757195 10.10954974 -24.8247514 8.24073507 -21.22119141 6.39086914 C-19.99813419 5.75928511 -18.77801602 5.12197428 -17.56103516 4.47875977 C-15.80643601 3.55268147 -14.04001169 2.64911911 -12.2734375 1.74609375 C-11.21560059 1.19622803 -10.15776367 0.6463623 -9.06787109 0.07983398 C-5.56152531 -1.15433499 -3.55815238 -0.91635248 0 0 Z " fill="#6ED6A3" transform="translate(181,91)"/>
<path d="M0 0 C-0.25335763 3.12474407 -0.59087492 4.60451242 -2.875 6.8125 C-7.541944 8.58593872 -12.06392865 8.23340442 -17 8 C-14.12071475 5.72195761 -11.2169671 3.95965316 -7.9375 2.3125 C-7.08027344 1.87550781 -6.22304687 1.43851562 -5.33984375 0.98828125 C-3 0 -3 0 0 0 Z " fill="#FA1671" transform="translate(80,101)"/>
<path d="M0 0 C-2.89585905 2.29648357 -5.8172031 4.04347557 -9.125 5.6875 C-10.42824219 6.34298828 -10.42824219 6.34298828 -11.7578125 7.01171875 C-14 8 -14 8 -16 8 C-16.33 9.32 -16.66 10.64 -17 12 C-16.76509667 8.00664332 -16.29297281 5.45899074 -14.125 2.0625 C-9.54048076 -0.9632827 -5.34128038 -0.42094154 0 0 Z " fill="#9CE5AA" transform="translate(164,90)"/>
<path d="M0 0 C-3.32486381 2.74054368 -6.83057886 4.42376049 -10.75 6.1875 C-11.92046875 6.71730469 -13.0909375 7.24710937 -14.296875 7.79296875 C-15.18890625 8.19128906 -16.0809375 8.58960937 -17 9 C-16.48330849 5.82076548 -16.19319866 4.23827835 -14.125 1.6875 C-9.50314881 -0.80829964 -5.14613143 -0.32444962 0 0 Z " fill="#DE95D7" transform="translate(60,90)"/>
<path d="M0 0 C-0.31769236 2.93865433 -0.54252049 4.55099234 -2.6875 6.65625 C-5.57820151 8.33598196 -7.43197973 8.30600072 -10.75 8.1875 C-11.73484375 8.16042969 -12.7196875 8.13335937 -13.734375 8.10546875 C-14.48203125 8.07066406 -15.2296875 8.03585938 -16 8 C-13.10414095 5.70351643 -10.1827969 3.95652443 -6.875 2.3125 C-5.57175781 1.65701172 -5.57175781 1.65701172 -4.2421875 0.98828125 C-2 0 -2 0 0 0 Z " fill="#18B796" transform="translate(184,101)"/>
<path d="M0 0 C2.01822917 0.06510417 4.03645833 0.13020833 6.0546875 0.1953125 C-3.9453125 5.1953125 -13.9453125 10.1953125 -23.9453125 15.1953125 C-23.9453125 14.2053125 -23.9453125 13.2153125 -23.9453125 12.1953125 C-23.34992676 11.90285645 -22.75454102 11.61040039 -22.14111328 11.30908203 C-19.44876388 9.98367433 -16.75952283 8.65207696 -14.0703125 7.3203125 C-13.13316406 6.86011719 -12.19601563 6.39992188 -11.23046875 5.92578125 C-10.33457031 5.48105469 -9.43867187 5.03632812 -8.515625 4.578125 C-7.27449951 3.96541748 -7.27449951 3.96541748 -6.00830078 3.34033203 C-3.67829377 2.0471092 -2.67730291 0.26880551 0 0 Z " fill="#E671BB" transform="translate(67.9453125,89.8046875)"/>
<path d="M0 0 C0 0.66 0 1.32 0 2 C-2.72379681 3.34538144 -5.45313508 4.67641535 -8.1875 6 C-8.95642578 6.3815625 -9.72535156 6.763125 -10.51757812 7.15625 C-17.60599841 10.56355932 -17.60599841 10.56355932 -22 10 C-18.85881272 7.47798906 -15.60307137 5.66752801 -12 3.875 C-10.453125 3.09769531 -10.453125 3.09769531 -8.875 2.3046875 C-5.83314164 0.92427895 -3.33799377 0 0 0 Z " fill="#F7217C" transform="translate(80,99)"/>
<path d="M0 0 C0.33 1.32 0.66 2.64 1 4 C3.97 4.33 6.94 4.66 10 5 C7 8 7 8 4 9 C3.01 10.485 3.01 10.485 2 12 C0.40861915 7.82262526 -0.21278058 4.46839215 0 0 Z " fill="#A6E1AD" transform="translate(0,417)"/>
<path d="M0 0 C-5.94 0.495 -5.94 0.495 -12 1 C-12.33 1.99 -12.66 2.98 -13 4 C-13.66 2.35 -14.32 0.7 -15 -1 C-9.55634324 -2.74197016 -5.09355531 -2.54677766 0 0 Z " fill="#68B897" transform="translate(21,433)"/>
<path d="M0 0 C0 3 0 3 -2 6 C-5.625 6.1875 -5.625 6.1875 -9 6 C-6.45543849 3.03134491 -3.51005335 1.6380249 0 0 Z " fill="#FC0A69" transform="translate(76,103)"/>
<path d="M0 0 C-2.52956528 3.0916909 -5.22454612 3.90931332 -9 5 C-5.28508772 -1.58552632 -5.28508772 -1.58552632 0 0 Z " fill="#ACEAAF" transform="translate(157,91)"/>
<path d="M0 0 C2.64 0.33 5.28 0.66 8 1 C4.86501708 2.85776765 2.62528568 3.20140476 -1 3 C-0.67 2.01 -0.34 1.02 0 0 Z " fill="#91DBA4" transform="translate(34,422)"/>
</svg>
