<?xml version="1.0" encoding="UTF-8"?>
<svg version="1.1" xmlns="http://www.w3.org/2000/svg" width="512" height="512">
<path d="M0 0 C41.90903389 39.55242241 67.58879167 96.26240327 70.0625 153.8125 C70.12695312 155.00746094 70.19140625 156.20242187 70.2578125 157.43359375 C70.47744069 164.35188159 70.56741228 170.24100413 66.0625 175.8125 C61.55855801 179.89747065 57.02329543 181.05497303 51.0625 180.8125 C44.84877111 179.65438565 41.59095897 176.94480396 38.0625 171.8125 C36.95209542 168.48128627 36.73884598 165.6136718 36.484375 162.109375 C36.37827869 160.73372151 36.27105448 159.35815465 36.1628418 157.98266602 C36.10639496 157.26136505 36.04994812 156.54006409 35.99179077 155.79690552 C32.33223921 110.18986103 16.52130002 67.74302049 -14.98828125 33.9140625 C-16.73277706 32.03322333 -18.37217568 30.10631969 -20 28.125 C-23.30861374 24.2619699 -27.02301723 21.04912382 -30.9375 17.8125 C-31.71311279 17.16039551 -31.71311279 17.16039551 -32.50439453 16.49511719 C-41.81109294 8.69325293 -51.42151719 1.8866685 -61.9375 -4.1875 C-62.60475098 -4.57534668 -63.27200195 -4.96319336 -63.95947266 -5.36279297 C-108.27336497 -30.79928711 -161.66810089 -36.47145984 -210.90209961 -23.8659668 C-247.58946542 -13.77114909 -283.66216447 7.08258503 -307.9375 36.8125 C-308.36643555 37.32377441 -308.79537109 37.83504883 -309.23730469 38.36181641 C-317.04854028 47.67765358 -323.82525846 57.30600945 -329.9375 67.8125 C-330.2876416 68.40434082 -330.6377832 68.99618164 -330.99853516 69.60595703 C-356.80513943 113.62898785 -362.16582794 167.76038558 -349.6159668 216.77709961 C-339.51281124 253.4947675 -318.65749505 289.49163738 -288.9375 313.8125 C-287.90614229 314.69127986 -286.87490265 315.57019829 -285.84375 316.44921875 C-255.53018304 341.88513047 -216.27080957 358.71273968 -176.609375 361.23046875 C-175.45453613 361.30692627 -174.29969727 361.38338379 -173.10986328 361.4621582 C-170.78636742 361.60975536 -168.46172126 361.74044468 -166.13623047 361.85229492 C-159.62492258 362.25350454 -155.24178318 362.92124308 -149.9375 366.8125 C-145.9140618 371.36533796 -144.67684542 375.83829711 -144.9375 381.8125 C-146.50947785 387.05242615 -148.74225419 390.31646183 -152.9375 393.8125 C-172.79659886 403.39159474 -210.33550201 391.8387558 -229.95703125 385.23046875 C-231.28404087 384.75833694 -232.61085265 384.28564879 -233.9375 383.8125 C-235.07904541 383.42118896 -235.07904541 383.42118896 -236.24365234 383.02197266 C-264.80290622 373.18041629 -290.50850877 358.01582309 -312.9375 337.8125 C-313.47955078 337.33071289 -314.02160156 336.84892578 -314.58007812 336.35253906 C-359.73882995 296.13874905 -386.0839027 238.95326568 -389.9375 178.8125 C-392.65978676 114.69922417 -370.66760621 55.04982598 -327.54882812 7.81420898 C-290.2705378 -32.3732856 -239.16836364 -56.81635712 -184.9375 -63.1875 C-183.85339844 -63.31898437 -182.76929688 -63.45046875 -181.65234375 -63.5859375 C-114.19467323 -70.16283818 -49.19528688 -45.63400148 0 0 Z " fill="#000000" transform="translate(415.9375,90.1875)"/>
<path d="M0 0 C1.67483117 0.555221 3.35026524 1.10862606 5.02624512 1.66036987 C9.53850823 3.15182191 14.04165932 4.66915101 18.54333186 6.19222426 C23.27199188 7.78782387 28.00801588 9.36128255 32.74305725 10.93782043 C40.68531567 13.58589796 48.62193938 16.25031638 56.55517578 18.92529297 C65.71462324 22.0135723 74.8816064 25.07854485 84.05318063 28.13060588 C92.90009726 31.07496258 101.74238219 34.03297889 110.58233833 36.99816322 C114.33483401 38.25677859 118.08871695 39.51112201 121.84376335 40.76210594 C126.26438171 42.23572951 130.68075166 43.72145836 135.09416962 45.21650314 C136.71047153 45.76197027 138.32813231 46.30343045 139.94724464 46.84049797 C142.16376381 47.57651669 144.37478144 48.32721555 146.58506775 49.08171082 C147.82144454 49.49743945 149.05782133 49.91316809 150.33166409 50.34149456 C156.80316134 53.13077099 161.42738562 56.55604 164.82446289 62.84692383 C167.85871761 71.03941158 167.35657227 77.25526763 164.48071289 85.25708008 C158.30697098 94.91083217 148.73122589 97.45329462 138.35098267 100.78762817 C135.60252184 101.67048696 132.86274617 102.57667238 130.12402344 103.48925781 C125.55142204 105.00963665 120.97302202 106.51151254 116.39233398 108.00732422 C111.21455309 109.70026855 106.04183448 111.40779472 100.87988281 113.1484375 C98.45211554 113.96635009 96.02015958 114.77197248 93.58349609 115.56298828 C86.12159614 118.07331023 80.99501494 120.01133778 76.97216797 127.12011719 C74.31324151 132.60663118 72.50674029 138.38505678 70.63468933 144.17671585 C69.96747162 146.23942177 69.29190153 148.29922751 68.61413574 150.35848999 C66.6907312 156.20763432 64.7829265 162.06183658 62.87866211 167.91723633 C61.70811196 171.5145996 60.52866383 175.10895047 59.34403992 178.70170212 C58.89721212 180.06321238 58.45388139 181.42587582 58.01423645 182.78972244 C57.39874432 184.69902182 56.77100448 186.6043596 56.14282227 188.50952148 C55.61464905 190.13212387 55.61464905 190.13212387 55.07580566 191.7875061 C52.06860354 199.13983808 47.33636681 204.55982101 39.94946289 207.65942383 C32.45695385 210.14744865 25.89075666 209.0010358 18.82446289 205.84692383 C12.41103486 201.71382576 9.55978148 195.79633101 7.17950439 188.7277832 C6.94332421 188.03424712 6.70714403 187.34071104 6.46380687 186.62615871 C5.67998271 184.31711915 4.90894958 182.00402065 4.13793945 179.69067383 C3.57648655 178.02755781 3.01430838 176.36468649 2.45146179 174.70204163 C0.92837745 170.19423046 -0.58297225 165.68257118 -2.09107113 161.16972733 C-3.03530696 158.34574291 -3.98194925 155.52257694 -4.92942047 152.69967651 C-8.23923433 142.83769627 -11.53908447 132.97244253 -14.83032227 123.10424805 C-17.89079138 113.92890285 -20.97360345 104.7612755 -24.06685805 95.59693718 C-26.72736451 87.7112106 -29.37151901 79.82012218 -32.00334001 71.92477608 C-33.57288924 67.21720088 -35.14888836 62.51204021 -36.74163055 57.81225586 C-38.24108078 53.38602874 -39.71992625 48.95342376 -41.18382835 44.51531792 C-41.721538 42.8965048 -42.26629704 41.28001169 -42.81897163 39.66624641 C-46.46368327 29.00606341 -50.20575083 17.36229105 -45.61303711 6.34692383 C-35.08162467 -11.0560485 -15.82776346 -5.41002836 0 0 Z " fill="#000000" transform="translate(303.175537109375,261.153076171875)"/>
<path d="M0 0 C1.14136143 1.00289311 2.28092965 2.00783406 3.41796875 3.015625 C4.20558594 3.70140625 4.99320313 4.3871875 5.8046875 5.09375 C17.01994884 15.55829405 31.70070784 34.74726552 33.8515625 50.11328125 C33.8595972 56.21162143 33.82464658 60.37701676 29.41796875 65.015625 C25.19880442 68.48471568 21.89617628 69.92277402 16.41796875 70.015625 C10.76239665 69.00326786 7.29574818 67.46461992 3.65917969 62.84204102 C1.34256471 59.43319037 -0.34822419 55.71578682 -2.14453125 52.015625 C-12.55182797 31.56153418 -30.12968414 15.77952131 -52.06640625 8.4453125 C-76.22907345 0.92487636 -100.42508347 2.35257298 -123.12109375 13.80078125 C-144.16941996 25.10673933 -159.36659227 42.73936492 -166.73828125 65.6015625 C-173.8097695 89.69513319 -171.72932756 113.9090101 -159.93554688 136.24487305 C-149.93085193 154.34967655 -135.61561332 165.85881756 -117.38500977 175.17431641 C-111.64253517 178.16330338 -108.07880521 180.80825223 -105.26953125 186.828125 C-104.09373179 192.27955887 -104.70113715 196.31908821 -107.26953125 201.265625 C-110.51840934 205.1291557 -113.00928034 207.47526666 -118.07421875 208.5390625 C-127.90539763 209.31170257 -135.36346962 204.78544273 -143.58203125 200.015625 C-144.57460937 199.45359375 -145.5671875 198.8915625 -146.58984375 198.3125 C-154.26242453 193.70447773 -160.92026848 187.94903504 -167.58203125 182.015625 C-168.23945313 181.44328125 -168.896875 180.8709375 -169.57421875 180.28125 C-189.94906935 161.36870925 -203.46399238 130.77867502 -204.70849609 103.21459961 C-205.62008176 66.70762597 -196.09926547 34.37104578 -170.81787109 7.27685547 C-153.44240489 -10.7513239 -131.84851005 -22.23553062 -107.58203125 -27.984375 C-106.64359375 -28.20996094 -105.70515625 -28.43554688 -104.73828125 -28.66796875 C-67.3118891 -35.96209088 -28.58418397 -24.5731308 0 0 Z " fill="#000000" transform="translate(337.58203125,162.984375)"/>
</svg>
