<?xml version="1.0" encoding="UTF-8"?>
<svg version="1.1" xmlns="http://www.w3.org/2000/svg" width="256" height="256">
<path d="M0 0 C18.95653338 -0.46981749 35.33079587 -0.45652487 50.375 12.5 C54.98223706 16.42132817 59.26954407 18.63742097 64.89453125 20.76953125 C79.14039559 26.41411901 90.94126883 35.59065892 102 46 C102.59167969 46.52722656 103.18335938 47.05445313 103.79296875 47.59765625 C125.28863521 67.56156501 137.03414958 98.49751837 138.27734375 127.34375 C139.14883882 160.98936824 128.44827578 192.94211821 105.21630859 217.68798828 C103.82298189 219.13706728 102.41159835 220.56871409 101 222 C100.14792969 222.86496094 99.29585937 223.72992188 98.41796875 224.62109375 C76.27710814 245.89889233 45.82925889 256.46313539 15.5 256.375 C14.79512451 256.37445618 14.09024902 256.37391235 13.36401367 256.37335205 C1.86264996 256.33263407 -8.97792364 255.46483453 -20 252 C-20.68900391 251.78569336 -21.37800781 251.57138672 -22.08789062 251.35058594 C-41.26976811 245.17535171 -57.36067891 234.77967183 -72 221 C-72.59167969 220.47277344 -73.18335938 219.94554687 -73.79296875 219.40234375 C-94.48539855 200.18443388 -106.71674656 169.31012628 -108.1262207 141.51049805 C-109.24117447 104.2639632 -97.60962779 73.23109398 -72 46 C-71.46246094 45.39800781 -70.92492187 44.79601563 -70.37109375 44.17578125 C-58.05077738 30.9291253 -40.30789 21.74447585 -23.35205078 16.02636719 C-19.06341664 14.55450166 -15.73203506 12.54254181 -12 10 C-9.8993244 9.02888476 -7.77375721 8.10950289 -5.625 7.25 C-4.56539063 6.82203125 -3.50578125 6.3940625 -2.4140625 5.953125 C-1.61742188 5.63859375 -0.82078125 5.3240625 0 5 C0 3.35 0 1.7 0 0 Z " fill="#FEC839" transform="translate(113,0)"/>
<path d="M0 0 C25.62528058 -0.63509529 25.62528058 -0.63509529 35 3 C35.85207031 3.32871094 36.70414063 3.65742187 37.58203125 3.99609375 C51.09661172 9.99565405 58.41499873 20.56410484 64.16015625 33.640625 C68.56669243 46.67577389 66.45692684 62.75014456 64 76 C61.36 76.33 58.72 76.66 56 77 C52.91324443 69.92743383 51.38863061 63.3097797 50.85986328 55.66015625 C50.42853519 50.75303551 49.13716533 47.78305231 46 44 C33.60230906 34.73143872 19.17382054 35.14835438 4.4375 36.625 C-3.62804779 37.8022694 -11.61412696 40.24257983 -17.20703125 46.44921875 C-20.46992209 51.09119635 -21.20966453 53.8891309 -21.375 59.625 C-21.73437886 66.10738089 -23.12928975 71.20517094 -26 77 C-26.63808594 77.04898438 -27.27617188 77.09796875 -27.93359375 77.1484375 C-29.17302734 77.26058594 -29.17302734 77.26058594 -30.4375 77.375 C-31.26121094 77.44460937 -32.08492188 77.51421875 -32.93359375 77.5859375 C-33.95646484 77.79089844 -33.95646484 77.79089844 -35 78 C-36.42151345 80.84302691 -36.23922606 82.83025472 -36 86 C-35.32453708 87.70473975 -34.64102723 89.40933629 -33.84765625 91.0625 C-32.88168498 93.27043434 -32.27542376 95.49327471 -31.625 97.8125 C-30.94356059 100.09776489 -30.94356059 100.09776489 -30 102 C-27.60931266 103.10636395 -27.60931266 103.10636395 -25 104 C-23.84765625 105.66796875 -23.84765625 105.66796875 -22.6875 107.75 C-20.01620383 112.44189198 -16.46210348 115.07693469 -12 118 C-11.979375 117.175 -11.95875 116.35 -11.9375 115.5 C-10.58266719 110.44195753 -7.9639935 107.36795825 -4 104 C5.6644711 98.52451232 16.8698408 97.80231634 27.5 100.67578125 C33.9168064 102.89623102 38.42897503 106.13565625 42 112 C42.68359375 114.75390625 42.68359375 114.75390625 43 117 C47.2026393 114.36113346 50.56638098 111.63559661 54 108 C53.37132505 120.36394061 48.81879781 131.24109216 40 140 C32.25448211 146.60142366 23.41169565 153.06537849 12.80078125 152.5703125 C2.38370402 150.44912244 -6.99545652 143.78894226 -14 136 C-15.04543894 134.36145332 -16.05988318 132.70116376 -17 131 C-26.91632387 133.405236 -36.18065209 137.27097814 -42 146 C-43.88246909 150.59427772 -44.2183005 154.43007363 -44.125 159.375 C-44.10695312 160.62023437 -44.08890625 161.86546875 -44.0703125 163.1484375 C-44.04710937 164.08945313 -44.02390625 165.03046875 -44 166 C-45.38336548 166.49814209 -45.38336548 166.49814209 -46.79467773 167.00634766 C-50.26010718 168.25787716 -53.7195357 169.52534211 -57.17749023 170.79736328 C-58.66649295 171.34265001 -60.15702816 171.88377279 -61.64916992 172.42041016 C-77.19886683 177.84518816 -77.19886683 177.84518816 -89.0625 188.875 C-89.63097656 189.65617188 -90.19945313 190.43734375 -90.78515625 191.2421875 C-91.38650391 192.11230469 -91.38650391 192.11230469 -92 193 C-95.35097358 189.92470603 -96.7735861 186.34293614 -98.4375 182.1875 C-98.74389404 181.42775879 -99.05028809 180.66801758 -99.3659668 179.88525391 C-111.9663254 148.01944354 -110.70501919 114.55005764 -98 83 C-91.8436366 68.90591078 -82.48004331 57.14358423 -72 46 C-71.46246094 45.39800781 -70.92492187 44.79601563 -70.37109375 44.17578125 C-58.05077738 30.9291253 -40.30789 21.74447585 -23.35205078 16.02636719 C-19.06341664 14.55450166 -15.73203506 12.54254181 -12 10 C-9.8993244 9.02888476 -7.77375721 8.10950289 -5.625 7.25 C-4.56539063 6.82203125 -3.50578125 6.3940625 -2.4140625 5.953125 C-1.61742188 5.63859375 -0.82078125 5.3240625 0 5 C0 3.35 0 1.7 0 0 Z " fill="#FE4155" transform="translate(113,0)"/>
<path d="M0 0 C18.19391912 5.74942974 33.17956081 15.99112374 47 29 C47.88751953 29.79083984 47.88751953 29.79083984 48.79296875 30.59765625 C70.28863521 50.56156501 82.03414958 81.49751837 83.27734375 110.34375 C83.88112743 133.65389332 79.32569798 155.51735472 68 176 C65.56933111 173.63656238 63.41117552 171.26699079 61.375 168.5625 C54.70819491 160.8208249 43.30372302 158.10215047 34 154.75 C31.58302525 153.870638 29.16634269 152.99047233 26.75 152.109375 C25.69296875 151.72749023 24.6359375 151.34560547 23.546875 150.95214844 C21 150 21 150 19 149 C19.04640625 148.09378906 19.0928125 147.18757812 19.140625 146.25390625 C19.41566579 136.97127966 18.97126409 130.26910889 12.5 123.3125 C7.78708408 119.83219286 2.26958428 117.50268557 -3 115 C-4.33509117 114.33686066 -5.66922334 113.67175568 -7 113 C-4.22589168 103.64200793 -4.22589168 103.64200793 -2.8125 99.625 C-1.80287751 96.82112082 -1.80287751 96.82112082 -2 93 C-2.55429688 93.5053125 -3.10859375 94.010625 -3.6796875 94.53125 C-4.40414062 95.1809375 -5.12859375 95.830625 -5.875 96.5 C-6.59429687 97.1496875 -7.31359375 97.799375 -8.0546875 98.46875 C-10 100 -10 100 -12 100 C-12.21914062 99.48050781 -12.43828125 98.96101563 -12.6640625 98.42578125 C-15.48928025 92.21259912 -18.52911206 88.49705881 -24.84375 85.7734375 C-30.51630032 83.70941548 -34.03331598 82.90505001 -40 84 C-41.23943359 83.73316406 -41.23943359 83.73316406 -42.50390625 83.4609375 C-48.02310633 82.44174249 -54.16106889 85.46529071 -58.97265625 88.06640625 C-63.40886568 91.32265205 -65.15348651 96.01441357 -67 101 C-71.8287715 99.57977309 -74.95782203 96.91531061 -78 93 C-79.375 89.625 -79.375 89.625 -80 87 C-81.1446875 86.9071875 -81.1446875 86.9071875 -82.3125 86.8125 C-85 86 -85 86 -86.625 84.0625 C-88.2174911 80.515588 -89.30833873 76.94805414 -90.3515625 73.20703125 C-90.93359888 70.98534638 -90.93359888 70.98534638 -92 69 C-92.25860135 64.94857881 -92.30441554 63.45662331 -90 60 C-87.8359375 59.70703125 -87.8359375 59.70703125 -85.375 59.8125 C-84.55773437 59.83957031 -83.74046875 59.86664063 -82.8984375 59.89453125 C-82.27195312 59.92933594 -81.64546875 59.96414062 -81 60 C-80.87625 59.0925 -80.7525 58.185 -80.625 57.25 C-80 54 -80 54 -78.98046875 52.21875 C-77.64418596 49.19481127 -77.75584181 46.54479466 -77.6875 43.25 C-77.28673976 36.91667418 -76.49529367 32.60257991 -72 28 C-63.6237821 20.78026189 -53.81416707 18.51794995 -43 18 C-41.97777344 17.94714844 -40.95554688 17.89429687 -39.90234375 17.83984375 C-28.36402806 17.52353712 -17.1207197 19.41592329 -8 27 C-4.34304422 31.46316296 -3.33698551 35.30741759 -2.9375 40.9375 C-2.61034959 45.18237751 -2.21753199 48.84642962 -0.44140625 52.75390625 C1 56 1 56 1 60 C1.66 59.67 2.32 59.34 3 59 C4.99960012 58.960008 7.00047242 58.95653201 9 59 C10.81154133 39.46123279 12.46893637 21.01118842 1.171875 3.92578125 C0 2 0 2 0 0 Z " fill="#FF7085" transform="translate(168,17)"/>
<path d="M0 0 C1.21875 1.56640625 1.21875 1.56640625 2.5 3.5625 C8.46154388 11.80215246 18.28787805 18.38124403 28.2890625 20.48046875 C37.85347634 21.30606148 47.44090541 15.43690588 54.5625 9.5 C57.90936897 6.32587265 60.48210811 2.85552195 63 -1 C73.53452662 2.12982313 82.59850688 5.64971413 89 15 C92.26736022 21.25060215 91.84420261 29.1935056 90.34765625 35.94140625 C86.73323392 47.09492407 78.86329499 54.02309578 69 60 C67.00898725 60.69304593 65.00975114 61.36333305 63 62 C63.01047363 63.0194873 63.02094727 64.03897461 63.03173828 65.08935547 C63.06788727 68.86503602 63.09088177 72.64070121 63.10986328 76.41650391 C63.11993254 78.05194672 63.13358881 79.68737149 63.15087891 81.32275391 C63.17508705 83.6709437 63.18647357 86.01889588 63.1953125 88.3671875 C63.20563507 89.10057343 63.21595764 89.83395935 63.22659302 90.58956909 C63.22699368 92.39462697 63.12212755 94.1990783 63 96 C61 98 61 98 58.5 98.25 C56 98 56 98 54 96 C53.77294922 92.92724609 53.77294922 92.92724609 53.8046875 89.0234375 C53.80968262 87.76966309 53.81467773 86.51588867 53.81982422 85.22412109 C53.83803223 83.62391113 53.85624023 82.02370117 53.875 80.375 C53.91625 75.30125 53.9575 70.2275 54 65 C38.82 65 23.64 65 8 65 C8.07913959 75.11216734 8.07913959 75.11216734 8.18017578 85.22412109 C8.1851709 86.47789551 8.19016602 87.73166992 8.1953125 89.0234375 C8.21102295 90.95582275 8.21102295 90.95582275 8.22705078 92.92724609 C8 96 8 96 6 98 C3.5 98.25 3.5 98.25 1 98 C-1 96 -1 96 -1.22705078 92.65185547 C-1.22673375 91.22359367 -1.21541361 89.79530788 -1.1953125 88.3671875 C-1.1924826 87.61535187 -1.18965271 86.86351624 -1.18673706 86.08889771 C-1.17552874 83.68410422 -1.15042352 81.27968119 -1.125 78.875 C-1.11497102 77.24609912 -1.10584503 75.61719242 -1.09765625 73.98828125 C-1.07558735 69.99204444 -1.04105351 65.99608506 -1 62 C-1.77561279 61.69529785 -2.55122559 61.3905957 -3.3503418 61.07666016 C-12.99788791 57.1564834 -22.01181054 50.91037593 -26.4375 41.25 C-29.64353629 33.25647454 -30.68328729 24.29495176 -27.4375 16.125 C-23.2709091 8.1234154 -9.13695614 -3.04565205 0 0 Z " fill="#FEDB40" transform="translate(97,131)"/>
<path d="M0 0 C11.53831569 -0.31630663 22.78162405 1.57607954 31.90234375 9.16015625 C35.55929953 13.62331921 36.56535824 17.46757384 36.96484375 23.09765625 C37.29199416 27.34253376 37.68481176 31.00658587 39.4609375 34.9140625 C40.90234375 38.16015625 40.90234375 38.16015625 40.90234375 42.16015625 C41.84207031 42.10794922 41.84207031 42.10794922 42.80078125 42.0546875 C43.61804688 42.02761719 44.4353125 42.00054687 45.27734375 41.97265625 C46.49550781 41.92044922 46.49550781 41.92044922 47.73828125 41.8671875 C48.45242187 41.96386719 49.1665625 42.06054688 49.90234375 42.16015625 C52.26906586 45.71023942 52.30485415 46.97404814 51.90234375 51.16015625 C50.94454125 53.51112601 49.9407694 55.84366826 48.90234375 58.16015625 C48.56644359 59.5714577 48.25385922 60.98851257 47.96484375 62.41015625 C46.90234375 66.16015625 46.90234375 66.16015625 45.02734375 68.16015625 C42.90234375 69.16015625 42.90234375 69.16015625 38.90234375 69.16015625 C38.90234375 70.00578125 38.90234375 70.85140625 38.90234375 71.72265625 C37.4562693 76.69353718 34.09406652 79.26281004 29.90234375 82.16015625 C29.24234375 82.16015625 28.58234375 82.16015625 27.90234375 82.16015625 C27.68320313 81.64066406 27.4640625 81.12117188 27.23828125 80.5859375 C24.4130635 74.37275537 21.37323169 70.65721506 15.05859375 67.93359375 C9.38604343 65.86957173 5.86902777 65.06520626 -0.09765625 66.16015625 C-1.33708984 65.89332031 -1.33708984 65.89332031 -2.6015625 65.62109375 C-8.12076258 64.60189874 -14.25872514 67.62544696 -19.0703125 70.2265625 C-23.50652193 73.4828083 -25.25114276 78.17456982 -27.09765625 83.16015625 C-31.92642775 81.73992934 -35.05547828 79.07546686 -38.09765625 75.16015625 C-39.47265625 71.78515625 -39.47265625 71.78515625 -40.09765625 69.16015625 C-41.24234375 69.06734375 -41.24234375 69.06734375 -42.41015625 68.97265625 C-45.09765625 68.16015625 -45.09765625 68.16015625 -46.72265625 66.22265625 C-48.31514735 62.67574425 -49.40599498 59.10821039 -50.44921875 55.3671875 C-51.03125513 53.14550263 -51.03125513 53.14550263 -52.09765625 51.16015625 C-52.3562576 47.10873506 -52.40207179 45.61677956 -50.09765625 42.16015625 C-47.93359375 41.8671875 -47.93359375 41.8671875 -45.47265625 41.97265625 C-44.65539062 41.99972656 -43.838125 42.02679688 -42.99609375 42.0546875 C-42.36960937 42.08949219 -41.743125 42.12429687 -41.09765625 42.16015625 C-40.97390625 41.25265625 -40.85015625 40.34515625 -40.72265625 39.41015625 C-40.09765625 36.16015625 -40.09765625 36.16015625 -39.078125 34.37890625 C-37.74184221 31.35496752 -37.85349806 28.70495091 -37.78515625 25.41015625 C-37.38439601 19.07683043 -36.59294992 14.76273616 -32.09765625 10.16015625 C-22.72908335 2.08507468 -11.92662637 0.61663516 0 0 Z " fill="#FEC6AA" transform="translate(128.09765625,34.83984375)"/>
<path d="M0 0 C6.76782255 2.73110949 10.11627787 8.41326612 12.984375 14.80078125 C14.26801058 18.60371205 14.05887041 22.39598617 13.9765625 26.35546875 C13.95901451 27.87369087 13.94210937 29.39192052 13.92578125 30.91015625 C13.89514729 33.2772373 13.86000782 35.64392711 13.81298828 38.01074219 C13.63862185 47.29330552 13.96241718 55.6750488 16.28369141 64.71630859 C18.20450447 73.17190172 17.79581442 80.65052184 13.859375 88.38671875 C8.18407816 95.69366343 0.91405897 99.7222389 -7.265625 103.73828125 C-25.47735327 112.04755953 -25.47735327 112.04755953 -39.015625 125.80078125 C-39.675625 125.80078125 -40.335625 125.80078125 -41.015625 125.80078125 C-41.50268551 123.99038654 -41.97980019 122.17731558 -42.453125 120.36328125 C-42.85337891 118.84927734 -42.85337891 118.84927734 -43.26171875 117.3046875 C-49.66586089 87.54035848 -43.04079028 54.46491931 -27.015625 28.80078125 C-21.66113961 20.89790442 -15.54544095 13.74840992 -9.015625 6.80078125 C-8.36207031 6.07117187 -7.70851562 5.3415625 -7.03515625 4.58984375 C-6.12830078 3.61144531 -6.12830078 3.61144531 -5.203125 2.61328125 C-4.68105469 2.04222656 -4.15898438 1.47117188 -3.62109375 0.8828125 C-2.015625 -0.19921875 -2.015625 -0.19921875 0 0 Z " fill="#FF7085" transform="translate(50.015625,39.19921875)"/>
<path d="M0 0 C12.90263465 4.07733985 27.01863154 10.64117011 37 20 C37 20.99 37 21.98 37 23 C35.55764385 24.14046765 34.11419975 25.27959901 32.6640625 26.41015625 C28.70744697 30.19030302 26.02534527 35.6464981 25 41 C24.952199 43.26381981 24.96234545 45.52910087 25.0078125 47.79296875 C25.02763597 49.15135375 25.04647943 50.50975333 25.06445312 51.86816406 C25.07484619 52.57428833 25.08523926 53.2804126 25.09594727 54.00793457 C25.24409313 65.12198693 25.00855024 75.66919718 22.68359375 86.58203125 C20.866752 95.66624001 21.23876889 103.91711389 26 112 C31.39042576 118.00374229 38.17323614 121.47993819 45.3125 125 C47.36497772 126.04354502 49.41578602 127.09038054 51.46484375 128.140625 C52.91286377 128.8821582 52.91286377 128.8821582 54.39013672 129.63867188 C62.68663313 133.96619891 70.58270964 139.1073548 77 146 C77 146.66 77 147.32 77 148 C77.66 148 78.32 148 79 148 C76.87527599 157.55114029 73.05354794 166.14882819 69 175 C68.01 175 67.02 175 66 175 C64.50454507 173.21451745 63.32960559 171.3031943 62.0859375 169.3359375 C55.09809481 161.51060055 45.17673697 158.53949382 35.5625 155.1875 C33.50280862 154.45583406 31.4443481 153.72078191 29.38597107 152.98542786 C27.53860498 152.3275812 25.68844082 151.67760769 23.83813477 151.02807617 C21 150 21 150 19 149 C19.04640625 148.09378906 19.0928125 147.18757812 19.140625 146.25390625 C19.41566579 136.97127966 18.97126409 130.26910889 12.5 123.3125 C7.78708408 119.83219286 2.26958428 117.50268557 -3 115 C-4.33509117 114.33686066 -5.66922334 113.67175568 -7 113 C-6.54287762 111.45797384 -6.08423653 109.91639786 -5.625 108.375 C-5.35300781 107.45847656 -5.08101562 106.54195313 -4.80078125 105.59765625 C-4.20008185 103.649046 -3.5243676 101.7233025 -2.8125 99.8125 C-1.8421147 96.45347397 -1.93432125 93.48097371 -2 90 C-1.67 89.01 -1.34 88.02 -1 87 C0.093125 86.71125 1.18625 86.4225 2.3125 86.125 C4.30614419 85.49597824 4.30614419 85.49597824 6 84 C7.8418518 79.78614914 8.89690091 75.45391085 10 71 C10.33 70.34 10.66 69.68 11 69 C11.24787017 64.85496339 11.24787017 64.85496339 10 61 C7.67843403 60.59270772 5.3431213 60.25561323 3 60 C3 59.67 3 59.34 3 59 C4.98 59 6.96 59 9 59 C10.81154133 39.46123279 12.46893637 21.01118842 1.171875 3.92578125 C0 2 0 2 0 0 Z " fill="#FE4155" transform="translate(168,17)"/>
<path d="M0 0 C0.31710938 0.76183594 0.63421875 1.52367187 0.9609375 2.30859375 C4.58389031 10.32512745 8.76213581 15.93998227 16 21 C16.9062915 21.32484375 17.81258301 21.6496875 18.74633789 21.984375 C22.12771694 23.32303691 24.38336844 24.45318544 27 27 C28.50218005 32.75584357 28.2727146 38.34218219 28.0625 44.25 C28.02669759 46.61440044 28.00615315 48.9783285 27.99302673 51.34295654 C27.97965629 52.81003949 27.95020125 54.2770819 27.90309143 55.74346924 C27.86166278 57.49545414 27.9223435 59.24924676 28 61 C28.66 61.66 29.32 62.32 30 63 C29.6730244 65.61580479 29.17960932 67.64078137 28 70 C27.9027114 72.12318064 27.87022381 74.24959691 27.875 76.375 C27.87242188 77.51710938 27.86984375 78.65921875 27.8671875 79.8359375 C27.9761732 82.43236152 28.23538757 84.53624883 29 87 C6.8084292 81.82317353 -11.6113851 70.64637691 -28 55 C-28.5878125 54.47535156 -29.175625 53.95070312 -29.78125 53.41015625 C-33.98910846 49.50994782 -37.35032944 45.03603983 -40.75 40.4375 C-41.22236084 39.79989746 -41.69472168 39.16229492 -42.18139648 38.50537109 C-44.85538898 34.815424 -47.07968351 31.15428468 -49 27 C-39.98560707 14.32350994 -30.24583367 10.14112532 -16 5 C-14.59608489 4.48250076 -13.19242466 3.96430936 -11.7890625 3.4453125 C-2.37730441 0 -2.37730441 0 0 0 Z " fill="#FEB332" transform="translate(69,166)"/>
<path d="M0 0 C25.62528058 -0.63509529 25.62528058 -0.63509529 35 3 C35.85207031 3.32871094 36.70414062 3.65742187 37.58203125 3.99609375 C51.09661172 9.99565405 58.41499873 20.56410484 64.16015625 33.640625 C68.56669243 46.67577389 66.45692684 62.75014456 64 76 C61.36 76.33 58.72 76.66 56 77 C52.91324443 69.92743383 51.38863061 63.3097797 50.85986328 55.66015625 C50.42853519 50.75303551 49.13716533 47.78305231 46 44 C33.60230906 34.73143872 19.17382054 35.14835438 4.4375 36.625 C-3.62804779 37.8022694 -11.61412696 40.24257983 -17.20703125 46.44921875 C-20.46992209 51.09119635 -21.20966453 53.8891309 -21.375 59.625 C-21.73437886 66.10738089 -23.12928975 71.20517094 -26 77 C-28.31 76.67 -30.62 76.34 -33 76 C-38.23805893 61.12391265 -36.21279419 42.9968535 -29.57421875 28.9921875 C-22.57776774 15.43317391 -13.96591034 10.46998155 0 5 C0 3.35 0 1.7 0 0 Z " fill="#763617" transform="translate(113,0)"/>
<path d="M0 0 C2.94653452 0.69328177 2.94653452 0.69328177 5.32421875 -0.08984375 C11.16107203 -0.96412277 16.90071127 1.98133156 22.0625 4.5 C26.70452768 8.20319062 29.19046446 11.5906768 30.0625 17.5 C34.2651393 14.86113346 37.62888098 12.13559661 41.0625 8.5 C40.43382505 20.86394061 35.88129781 31.74109216 27.0625 40.5 C19.31698211 47.10142366 10.47419565 53.56537849 -0.13671875 53.0703125 C-11.45257119 50.76610824 -21.85377555 43.19026941 -28.7421875 34.125 C-33.70072304 26.42816872 -37.29278581 17.73743094 -36.9375 8.5 C-36.256875 9.221875 -35.57625 9.94375 -34.875 10.6875 C-31.84535482 13.73455693 -28.47532696 16.07207954 -24.9375 18.5 C-24.916875 17.675 -24.89625 16.85 -24.875 16 C-23.52261133 10.9510823 -20.90882592 7.84991341 -16.9375 4.5 C-13.70509734 2.7697722 -10.44816912 1.54085165 -6.9375 0.5 C-6.23882812 0.29246094 -5.54015625 0.08492188 -4.8203125 -0.12890625 C-2.9375 -0.5 -2.9375 -0.5 0 0 Z " fill="#965432" transform="translate(125.9375,99.5)"/>
<path d="M0 0 C10.53467659 3.19792374 19.57464941 6.61486692 26 16 C29.26736022 22.25060215 28.84420261 30.1935056 27.34765625 36.94140625 C23.73323392 48.09492407 15.86329499 55.02309578 6 61 C4.00898725 61.69304593 2.00975114 62.36333305 0 63 C0.01047363 64.0194873 0.02094727 65.03897461 0.03173828 66.08935547 C0.06788727 69.86503602 0.09088177 73.64070121 0.10986328 77.41650391 C0.11993254 79.05194672 0.13358881 80.68737149 0.15087891 82.32275391 C0.17508705 84.6709437 0.18647357 87.01889588 0.1953125 89.3671875 C0.20563507 90.10057343 0.21595764 90.83395935 0.22659302 91.58956909 C0.22699368 93.39462697 0.12212755 95.1990783 0 97 C-2 99 -2 99 -4.5 99.25 C-7 99 -7 99 -9 97 C-9.22705078 93.92724609 -9.22705078 93.92724609 -9.1953125 90.0234375 C-9.1924826 89.33819 -9.18965271 88.6529425 -9.18673706 87.94692993 C-9.17553281 85.75610973 -9.15042859 83.56569684 -9.125 81.375 C-9.11497048 79.8906309 -9.10584458 78.4062554 -9.09765625 76.921875 C-9.07729323 73.28096644 -9.03814721 69.64093968 -9 66 C-14.61 66 -20.22 66 -26 66 C-24.35 64.35 -22.7 62.7 -21 61 C-12.03086047 51.19849715 -6.8732376 40.65052827 -6.89453125 27.2265625 C-6.87229492 25.6178125 -6.87229492 25.6178125 -6.84960938 23.9765625 C-6.82495774 21.75013038 -6.81961129 19.5233972 -6.83398438 17.296875 C-6.68508155 9.77051404 -5.32261058 5.41471127 0 0 Z " fill="#FDE57F" transform="translate(160,130)"/>
<path d="M0 0 C0.58080322 0.39396973 1.16160645 0.78793945 1.76000977 1.19384766 C13.9803453 9.90951371 13.9803453 9.90951371 28.29296875 12.65625 C37.09990914 10.52123415 44.79397551 5.30150976 52 0 C52.05859888 3.83326795 52.09379643 7.66641888 52.125 11.5 C52.14175781 12.57765625 52.15851563 13.6553125 52.17578125 14.765625 C52.21323752 20.90845316 51.82257128 26.12871681 50 32 C49.73960937 32.86367187 49.47921875 33.72734375 49.2109375 34.6171875 C46.67400861 41.46926645 42.87465611 46.59964568 38 52 C37.52820313 52.57363281 37.05640625 53.14726562 36.5703125 53.73828125 C33.52047277 56.94151528 30.40622798 57.48716194 26.1875 57.8125 C20.16882778 57.54400905 17.10393664 55.5986934 12.96484375 51.33984375 C4.74252137 41.5482511 -0.16728226 31.11449989 -0.09765625 18.1640625 C-0.09443359 17.10058594 -0.09121094 16.03710938 -0.08789062 14.94140625 C-0.07951172 13.84699219 -0.07113281 12.75257813 -0.0625 11.625 C-0.05798828 10.50738281 -0.05347656 9.38976562 -0.04882812 8.23828125 C-0.03709244 5.49213196 -0.02067363 2.74609414 0 0 Z " fill="#FEAA7A" transform="translate(102,139)"/>
<path d="M0 0 C0 0.33 0 0.66 0 1 C-1.21236328 1.03867187 -1.21236328 1.03867187 -2.44921875 1.078125 C-9.02147931 1.36390679 -9.02147931 1.36390679 -15.0625 3.6875 C-19.9439725 9.51377362 -20.23536375 14.34789148 -20.6171875 21.71875 C-20.98718489 24.89015616 -21.67297793 26.91265424 -23.0625 29.75 C-26.63694026 37.7406871 -25.60708782 47.68606131 -24.48046875 56.21875 C-23.28612902 66.08419034 -23.28612902 66.08419034 -25.57421875 69.01953125 C-27.6875 70.5 -27.6875 70.5 -29.921875 71.73828125 C-34.03846619 74.23764019 -35.51868239 78.55604717 -37 83 C-41.8287715 81.57977309 -44.95782203 78.91531061 -48 75 C-49.375 71.625 -49.375 71.625 -50 69 C-51.1446875 68.9071875 -51.1446875 68.9071875 -52.3125 68.8125 C-55 68 -55 68 -56.625 66.0625 C-58.2174911 62.515588 -59.30833873 58.94805414 -60.3515625 55.20703125 C-60.93359888 52.98534638 -60.93359888 52.98534638 -62 51 C-62.25860135 46.94857881 -62.30441554 45.45662331 -60 42 C-57.8359375 41.70703125 -57.8359375 41.70703125 -55.375 41.8125 C-54.55773437 41.83957031 -53.74046875 41.86664063 -52.8984375 41.89453125 C-52.27195312 41.92933594 -51.64546875 41.96414062 -51 42 C-50.87625 41.0925 -50.7525 40.185 -50.625 39.25 C-50 36 -50 36 -48.98046875 34.21875 C-47.64418596 31.19481127 -47.75584181 28.54479466 -47.6875 25.25 C-47.28673976 18.91667418 -46.49529367 14.60257991 -42 10 C-29.98917103 -0.35252911 -15.04302336 -0.21220566 0 0 Z " fill="#FDA97A" transform="translate(138,35)"/>
<path d="M0 0 C0.36351562 0.79664063 0.72703125 1.59328125 1.1015625 2.4140625 C4.09597153 8.72535538 6.83177942 13.3239909 12 18 C12 18.66 12 19.32 12 20 C10.3125 21.48046875 10.3125 21.48046875 8 23.1875 C7.175 23.81785156 6.35 24.44820312 5.5 25.09765625 C3.98090619 26.25359169 2.46044255 27.40773376 0.9375 28.55859375 C-8.51509659 36.20071317 -16.05526408 47.35362102 -17.6875 59.5 C-17.790625 60.655 -17.89375 61.81 -18 63 C-22.09461315 60.76657464 -25.35146557 58.03382005 -28.625 54.75 C-29.39734985 53.9763208 -29.39734985 53.9763208 -30.18530273 53.18701172 C-37.64494475 45.50311372 -44.46157631 36.73157079 -49 27 C-39.98560707 14.32350994 -30.24583367 10.14112532 -16 5 C-14.59608489 4.48250076 -13.19242466 3.96430936 -11.7890625 3.4453125 C-2.37730441 0 -2.37730441 0 0 0 Z " fill="#FFC739" transform="translate(69,166)"/>
<path d="M0 0 C7.48734403 2.14532023 14.8163399 4.62346468 22.125 7.3125 C23.67380859 7.86067383 23.67380859 7.86067383 25.25390625 8.41992188 C33.79370789 11.56931369 40.56639167 15.40378854 46 22.875 C46.5775 23.65617187 47.155 24.43734375 47.75 25.2421875 C48.1625 25.82226562 48.575 26.40234375 49 27 C43.0154734 38.33587803 30.74466574 58.75177809 18 63 C17.86464844 62.11699219 17.72929687 61.23398438 17.58984375 60.32421875 C16.0024988 51.47500828 13.44225462 45.13868964 8 38 C7.48695313 37.30519531 6.97390625 36.61039063 6.4453125 35.89453125 C1.30216559 29.48478846 -5.42149135 24.82753717 -12 20 C-10.69886735 17.14370404 -9.28411995 15.07789787 -7.125 12.8125 C-3.69490974 8.94524138 -1.88841135 4.76068007 0 0 Z " fill="#FFDC40" transform="translate(187,166)"/>
<path d="M0 0 C12.52863796 -0.85422532 24.56340263 4.0812485 34.125 11.9375 C43.71267942 21.01182335 49.70255229 33.44934123 50.23828125 46.63671875 C50.45917429 56.59404393 49.81799725 66.19580052 48 76 C45.36 76.33 42.72 76.66 40 77 C36.91324443 69.92743383 35.38863061 63.3097797 34.85986328 55.66015625 C34.42853519 50.75303551 33.13716533 47.78305231 30 44 C20.37645754 36.80540276 9.59759989 35.83784942 -2 35 C-2.97854077 27.29399142 -2.97854077 27.29399142 -0.21875 23.64453125 C0.5134375 22.89558594 1.245625 22.14664062 2 21.375 C5.31184953 17.9960923 5.31184953 17.9960923 6.875 13.5625 C5.60928875 8.40924704 2.95175992 4.36614489 0 0 Z " fill="#945230" transform="translate(129,0)"/>
<path d="M0 0 C2.77683159 2.02823874 3.82506217 4.52631467 5.1875 7.625 C8.53105181 14.56617291 13.60590569 19.60590569 19 25 C13.39 25 7.78 25 2 25 C2.02320312 27.21460938 2.04640625 29.42921875 2.0703125 31.7109375 C2.08590314 33.85220771 2.0980512 35.99347164 2.10986328 38.13476562 C2.11993043 39.6247032 2.13358518 41.11462097 2.15087891 42.60449219 C2.17509653 44.74419028 2.18647564 46.88362753 2.1953125 49.0234375 C2.20578613 50.31169434 2.21625977 51.59995117 2.22705078 52.92724609 C2 56 2 56 0 58 C-2.5 58.25 -2.5 58.25 -5 58 C-7 56 -7 56 -7.22705078 52.65185547 C-7.22673375 51.22359367 -7.21541361 49.79530788 -7.1953125 48.3671875 C-7.1924826 47.61535187 -7.18965271 46.86351624 -7.18673706 46.08889771 C-7.17552874 43.68410422 -7.15042352 41.27968119 -7.125 38.875 C-7.11497102 37.24609912 -7.10584503 35.61719242 -7.09765625 33.98828125 C-7.07558735 29.99204444 -7.04105351 25.99608506 -7 22 C-7.77956055 21.69296143 -8.55912109 21.38592285 -9.36230469 21.06958008 C-13.99393837 19.19146205 -18.89874216 17.14745278 -21.25 12.5625 C-20.77286901 7.6719074 -17.92502341 4.85733877 -14.4375 1.625 C-9.71682919 -0.60658984 -5.14795523 -0.89705342 0 0 Z " fill="#FDE67E" transform="translate(103,171)"/>
<path d="M0 0 C0.07347656 0.90492187 0.07347656 0.90492187 0.1484375 1.828125 C0.22320312 2.62734375 0.29796875 3.4265625 0.375 4.25 C0.44460937 5.03890625 0.51421875 5.8278125 0.5859375 6.640625 C0.95029348 9.37704633 0.95029348 9.37704633 3 13 C0.69 14.98 -1.62 16.96 -4 19 C-3.72342508 22.31889905 -3.21633092 23.76400263 -0.9375 26.25 C2.85762944 28.51092818 5.61658852 28.70281956 10 29 C10.02578125 29.58007812 10.0515625 30.16015625 10.078125 30.7578125 C10.47442527 36.21594798 11.32654191 39.71429889 15 44 C16.63978318 45.04349839 18.30094366 46.05607981 20 47 C20 47.66 20 48.32 20 49 C9.64234938 50.50352993 1.21934736 45.80226649 -6.90625 39.8828125 C-16.01714942 32.17147895 -21.30448879 22.60655415 -24 11 C-24.0604375 9.00091338 -24.07686624 6.99852235 -24 5 C-23.319375 5.721875 -22.63875 6.44375 -21.9375 7.1875 C-18.90785482 10.23455693 -15.53782696 12.57207954 -12 15 C-11.979375 14.175 -11.95875 13.35 -11.9375 12.5 C-10.61475285 7.56174396 -7.62987382 4.5125107 -4 1 C-2 0 -2 0 0 0 Z " fill="#783918" transform="translate(113,103)"/>
<path d="M0 0 C0.57717773 0.39469482 1.15435547 0.78938965 1.74902344 1.19604492 C6.14127216 4.16767286 10.49050269 6.95184024 15.25 9.3125 C16.22453125 9.80363281 17.1990625 10.29476562 18.203125 10.80078125 C20.83164873 11.92781587 23.18321234 12.56308951 26 13 C25.20221965 24.96670521 21.45300272 35.22505723 13.9375 44.5625 C12 46 12 46 10.04296875 45.88671875 C7.16334654 44.6368636 6.66712065 43.06765665 5.375 40.25 C4.97023438 39.38890625 4.56546875 38.5278125 4.1484375 37.640625 C3.76945312 36.76921875 3.39046875 35.8978125 3 35 C2.64164062 34.19046875 2.28328125 33.3809375 1.9140625 32.546875 C0.21740277 27.81942994 -0.1244948 23.1560335 -0.09765625 18.1640625 C-0.09443359 17.10058594 -0.09121094 16.03710938 -0.08789062 14.94140625 C-0.07951172 13.84699219 -0.07113281 12.75257813 -0.0625 11.625 C-0.05798828 10.50738281 -0.05347656 9.38976562 -0.04882812 8.23828125 C-0.03709244 5.49213196 -0.02067363 2.74609414 0 0 Z " fill="#FB945F" transform="translate(102,139)"/>
<path d="M0 0 C0.639375 0.763125 1.27875 1.52625 1.9375 2.3125 C4.25548329 4.66331592 6.2137628 5.54046517 9.375 6.4375 C14.29545668 7.85511901 17.40891097 10.43200479 21 14 C20.12705425 17.84096129 19.3297002 19.70169982 16.375 22.375 C11.99922802 24.48185318 9.8049721 24.70893031 5 24 C2.97170628 21.59140121 2 20.16955691 2 17 C1.01 17 0.02 17 -1 17 C-1.103125 17.78375 -1.20625 18.5675 -1.3125 19.375 C-2 22 -2 22 -5 24 C-9.66784436 24.53565427 -12.63803034 24.73093322 -16.4375 21.8125 C-18.99909564 19.00099259 -19.78698668 17.72773314 -20 14 C-15.32066256 9.52411201 -11.39702468 7.06424718 -5.234375 5.0546875 C-2.59961329 3.81100627 -1.55118415 2.42750247 0 0 Z " fill="#FCC4A8" transform="translate(128,108)"/>
<path d="M0 0 C2.5 0.25 2.5 0.25 4.5 2.25 C4.69998324 5.16749135 4.77974887 7.98801929 4.765625 10.90625 C4.76753845 11.76432251 4.7694519 12.62239502 4.77142334 13.50646973 C4.77278544 15.32218722 4.76908728 17.13791445 4.76074219 18.95361328 C4.75004291 21.7388285 4.76063653 24.52339868 4.7734375 27.30859375 C4.77211591 29.07031393 4.76955353 30.83203371 4.765625 32.59375 C4.76967346 33.43023071 4.77372192 34.26671143 4.77789307 35.12854004 C4.72991834 41.02008166 4.72991834 41.02008166 2.5 43.25 C0 43.5 0 43.5 -2.5 43.25 C-5.13185269 40.61814731 -4.74871862 38.71131131 -4.77789307 35.12854004 C-4.7738446 34.29205933 -4.76979614 33.45557861 -4.765625 32.59375 C-4.76753845 31.73567749 -4.7694519 30.87760498 -4.77142334 29.99353027 C-4.77278544 28.17781278 -4.76908728 26.36208555 -4.76074219 24.54638672 C-4.75004291 21.7611715 -4.76063653 18.97660132 -4.7734375 16.19140625 C-4.77211591 14.42968607 -4.76955353 12.66796629 -4.765625 10.90625 C-4.76967346 10.06976929 -4.77372192 9.23328857 -4.77789307 8.37145996 C-4.71356265 0.47135627 -4.71356265 0.47135627 0 0 Z " fill="#DFEBF4" transform="translate(100.5,185.75)"/>
<path d="M0 0 C2.4375 0.1875 2.4375 0.1875 3.4375 1.1875 C3.538637 4.20558063 3.57718909 7.20030513 3.5703125 10.21875 C3.57126923 11.12500122 3.57222595 12.03125244 3.57321167 12.96496582 C3.57389353 14.88501047 3.57203882 16.80505741 3.56787109 18.72509766 C3.56252292 21.67485704 3.56781588 24.62446414 3.57421875 27.57421875 C3.57355797 29.43489617 3.57227681 31.2955735 3.5703125 33.15625 C3.57233673 34.04477661 3.57436096 34.93330322 3.57644653 35.84875488 C3.55244988 42.07255012 3.55244988 42.07255012 2.4375 43.1875 C0 43.375 0 43.375 -2.5625 43.1875 C-5.19435269 40.55564731 -4.81121862 38.64881131 -4.84039307 35.06604004 C-4.8363446 34.22955933 -4.83229614 33.39307861 -4.828125 32.53125 C-4.83003845 31.67317749 -4.8319519 30.81510498 -4.83392334 29.93103027 C-4.83528544 28.11531278 -4.83158728 26.29958555 -4.82324219 24.48388672 C-4.81254291 21.6986715 -4.82313653 18.91410132 -4.8359375 16.12890625 C-4.83461591 14.36718607 -4.83205353 12.60546629 -4.828125 10.84375 C-4.83217346 10.00726929 -4.83622192 9.17078857 -4.84039307 8.30895996 C-4.77557877 0.34943259 -4.77557877 0.34943259 0 0 Z " fill="#DEEDFB" transform="translate(155.5625,185.8125)"/>
<path d="M0 0 C2.1640625 -0.29296875 2.1640625 -0.29296875 4.625 -0.1875 C5.44226563 -0.16042969 6.25953125 -0.13335937 7.1015625 -0.10546875 C8.04128906 -0.05326172 8.04128906 -0.05326172 9 0 C8.96519531 0.99966797 8.96519531 0.99966797 8.9296875 2.01953125 C8.81129536 8.06598714 9.34872196 13.55323386 10.5546875 19.47265625 C11.12714336 22.72159436 11.14615107 25.71160087 11 29 C10.67 28.34 10.34 27.68 10 27 C9.21625 26.896875 8.4325 26.79375 7.625 26.6875 C5 26 5 26 3.375 24.0625 C1.7825089 20.515588 0.69166127 16.94805414 -0.3515625 13.20703125 C-0.93359888 10.98534638 -0.93359888 10.98534638 -2 9 C-2.25860135 4.94857881 -2.30441554 3.45662331 0 0 Z " fill="#FC9260" transform="translate(78,77)"/>
<path d="M0 0 C1.27875 -0.061875 2.5575 -0.12375 3.875 -0.1875 C4.95394531 -0.23970703 4.95394531 -0.23970703 6.0546875 -0.29296875 C6.69664062 -0.19628906 7.33859375 -0.09960938 8 0 C10.36672211 3.55008317 10.4025104 4.81389189 10 9 C9.0421975 11.35096976 8.03842565 13.68351201 7 16 C6.66409984 17.41130145 6.35151547 18.82835632 6.0625 20.25 C5 24 5 24 3.0625 26 C1 27 1 27 -2 27 C-2.34915606 17.84435229 -1.27041977 9.04039783 0 0 Z " fill="#FEA77A" transform="translate(170,77)"/>
<path d="M0 0 C1.00696568 2.10084209 2.0053589 4.20579489 3 6.3125 C3.556875 7.48425781 4.11375 8.65601562 4.6875 9.86328125 C6 13 6 13 6 16 C-1.76785714 16.66964286 -1.76785714 16.66964286 -5.4375 13.8125 C-7.99909564 11.00099259 -8.78698668 9.72773314 -9 6 C-7.8803014 4.99406757 -6.7540588 3.9954151 -5.625 3 C-4.68527344 2.1646875 -4.68527344 2.1646875 -3.7265625 1.3125 C-2 0 -2 0 0 0 Z " fill="#FDA87A" transform="translate(117,116)"/>
</svg>
