<?xml version="1.0" encoding="UTF-8"?>
<svg version="1.1" xmlns="http://www.w3.org/2000/svg" width="512" height="512">
<path d="M0 0 C1.01790619 0.00215515 2.03581238 0.0043103 3.08456421 0.00653076 C17.69363523 0.05620146 32.02575853 0.30709809 46.375 3.3125 C47.34985352 3.51117676 48.32470703 3.70985352 49.32910156 3.91455078 C97.7109774 14.03517194 141.69928269 35.9516877 177.375 70.3125 C178.3640332 71.26068604 178.3640332 71.26068604 179.37304688 72.22802734 C188.86130305 81.37247479 197.6012044 90.66984009 205.375 101.3125 C206.23306152 102.46355017 207.09113451 103.61459177 207.94921875 104.765625 C213.98736829 112.95680614 219.34595521 121.47054105 224.375 130.3125 C224.73948242 130.94430176 225.10396484 131.57610352 225.47949219 132.22705078 C247.08534998 169.97532572 256.85198095 212.74189997 256.6875 255.9375 C256.68534485 256.95540619 256.6831897 257.97331238 256.68096924 259.02206421 C256.63129854 273.63113523 256.38040191 287.96325853 253.375 302.3125 C253.07698486 303.77478027 253.07698486 303.77478027 252.77294922 305.26660156 C242.65232806 353.6484774 220.7358123 397.63678269 186.375 433.3125 C185.74287598 433.97185547 185.11075195 434.63121094 184.45947266 435.31054688 C175.31502521 444.79880305 166.01765991 453.5387044 155.375 461.3125 C154.22394983 462.17056152 153.07290823 463.02863451 151.921875 463.88671875 C143.73224019 469.92427396 135.22961724 475.30707302 126.375 480.3125 C125.66778809 480.7146875 124.96057617 481.116875 124.23193359 481.53125 C101.09654164 494.5566741 75.92537591 503.30551461 49.9375 508.625 C49.21860596 508.77235596 48.49971191 508.91971191 47.7590332 509.0715332 C33.08339502 511.86090125 18.55831162 512.66142619 3.64770508 512.62817383 C0.70811513 512.6250221 -2.2304558 512.64854926 -5.16992188 512.67382812 C-18.54306192 512.71848737 -31.43916711 511.51301542 -44.625 509.3125 C-46.33055054 509.03031616 -46.33055054 509.03031616 -48.07055664 508.74243164 C-91.33802759 500.97044532 -132.38793216 480.98345309 -165.625 452.3125 C-166.37007813 451.67828125 -167.11515625 451.0440625 -167.8828125 450.390625 C-181.38779833 438.57948485 -194.05918743 425.82889772 -204.625 411.3125 C-205.48149066 410.16255169 -206.33826433 409.01281411 -207.1953125 407.86328125 C-213.23534209 399.67315742 -218.61867614 391.16870382 -223.625 382.3125 C-224.0271875 381.60528809 -224.429375 380.89807617 -224.84375 380.16943359 C-237.8691741 357.03404164 -246.61801461 331.86287591 -251.9375 305.875 C-252.08485596 305.15610596 -252.23221191 304.43721191 -252.3840332 303.6965332 C-255.35789088 288.05024391 -255.99800362 272.57681954 -255.9375 256.6875 C-255.93534485 255.66959381 -255.9331897 254.65168762 -255.93096924 253.60293579 C-255.88129854 238.99386477 -255.63040191 224.66174147 -252.625 210.3125 C-252.42632324 209.33764648 -252.22764648 208.36279297 -252.02294922 207.35839844 C-241.90232806 158.9765226 -219.9858123 114.98821731 -185.625 79.3125 C-184.99287598 78.65314453 -184.36075195 77.99378906 -183.70947266 77.31445312 C-174.56502521 67.82619695 -165.26765991 59.0862956 -154.625 51.3125 C-153.47394983 50.45443848 -152.32290823 49.59636549 -151.171875 48.73828125 C-142.98224019 42.70072604 -134.47961724 37.31792698 -125.625 32.3125 C-124.91778809 31.9103125 -124.21057617 31.508125 -123.48193359 31.09375 C-100.34654164 18.0683259 -75.17537591 9.31948539 -49.1875 4 C-48.46860596 3.85264404 -47.74971191 3.70528809 -47.0090332 3.5534668 C-31.36274391 0.57960912 -15.88931954 -0.06050362 0 0 Z " fill="#FE3333" transform="translate(255.625,-0.3125)"/>
<path d="M0 0 C4.35536035 3.48428828 8.13176175 7.16900668 11.85671997 11.32327271 C18.49574088 18.64451571 25.47903274 25.60477841 32.47998047 32.57763672 C33.90226798 33.9980003 35.32432448 35.41859525 36.74617004 36.83940125 C39.7838784 39.87397271 42.8231268 42.90698988 45.86361313 45.93877792 C50.67416164 50.73570357 55.48080347 55.53653133 60.28689575 60.33792114 C70.47995517 70.51992903 80.67726332 80.69767693 90.875 90.875 C101.90784016 101.88578748 112.9399271 112.8973237 123.96715271 123.91373456 C128.74291346 128.6845219 133.52109927 133.45286284 138.30117488 138.21932673 C141.27151472 141.18220085 144.23977553 144.14715109 147.20747948 147.11266518 C148.58162603 148.48494221 149.95663555 149.85635575 151.33257866 151.22683144 C153.21337759 153.10039227 155.0910416 154.97704154 156.96798706 156.85446167 C157.51010704 157.39298669 158.05222702 157.9315117 158.61077487 158.48635566 C161.9546772 161.83929993 165.13812914 165.22133645 168 169 C167.88427734 171.84228516 167.88427734 171.84228516 166.8359375 174.7890625 C166.46033691 175.88532959 166.08473633 176.98159668 165.69775391 178.11108398 C165.04299072 179.85047241 165.04299072 179.85047241 164.375 181.625 C163.72990479 183.43109741 163.72990479 183.43109741 163.07177734 185.27368164 C150.42908518 220.01916003 131.67982819 251.33746702 106 278 C105.36787598 278.65935547 104.73575195 279.31871094 104.08447266 279.99804688 C94.94002521 289.48630305 85.64265991 298.2262044 75 306 C73.84894983 306.85806152 72.69790823 307.71613451 71.546875 308.57421875 C63.35724019 314.61177396 54.85461724 319.99457302 46 325 C45.29278809 325.4021875 44.58557617 325.804375 43.85693359 326.21875 C31.05737826 333.42500944 17.80467219 339.00988605 4 344 C3.1740332 344.30309082 2.34806641 344.60618164 1.49707031 344.91845703 C0.71686523 345.19415527 -0.06333984 345.46985352 -0.8671875 345.75390625 C-1.5463623 345.99568604 -2.22553711 346.23746582 -2.92529297 346.48657227 C-5.46114083 347.11411852 -7.38771912 347.25148941 -10 347 C-12.14376831 345.56106567 -12.14376831 345.56106567 -14.36669922 343.44189453 C-15.24050232 342.61433655 -16.11430542 341.78677856 -17.0145874 340.93414307 C-18.01165538 339.95806344 -19.00667458 338.97988806 -20 338 C-20.54349342 337.46724205 -21.08698685 336.9344841 -21.64694977 336.38558197 C-25.46979168 332.62986794 -29.25785487 328.84036586 -33.03570938 325.03945541 C-35.1785778 322.88364582 -37.32470994 320.73113135 -39.47164917 318.57937622 C-44.0256084 314.01407885 -48.57559925 309.44483939 -53.125 304.875 C-58.40958977 299.56670877 -63.69584811 294.26010114 -68.98635483 288.95770645 C-71.08877957 286.84885503 -73.18814274 284.73698914 -75.28738403 282.62496948 C-80.76848226 277.12302897 -86.21281159 271.66351034 -92.13790894 266.63500977 C-96.19555093 263.07219567 -99.94494505 259.1756664 -103.75 255.34765625 C-104.64871826 254.44752304 -105.54743652 253.54738983 -106.47338867 252.61997986 C-108.83586575 250.25288737 -111.19615112 247.88365361 -113.55535889 245.51330566 C-115.97385181 243.08449258 -118.39525946 240.65858897 -120.81640625 238.23242188 C-125.54692954 233.49092631 -130.27457973 228.74658102 -135 224 C-134.34 223.67 -133.68 223.34 -133 223 C-130.8054131 224.14263616 -128.73104028 225.33573074 -126.625 226.625 C-111.80102312 235.33147656 -97.1493397 239.11157267 -80 240 C-79.23042969 240.05285156 -78.46085937 240.10570312 -77.66796875 240.16015625 C-56.45173186 240.96939912 -33.09620724 231.75716518 -17.5625 217.5 C-15.6733414 215.69710155 -13.83624953 213.85820767 -12 212 C-11.33355469 211.34386719 -10.66710937 210.68773437 -9.98046875 210.01171875 C-0.33013565 199.8385685 4.44017031 187.29206794 8 174 C8.17885742 173.38890381 8.35771484 172.77780762 8.54199219 172.14819336 C12.94895374 151.47822816 7.86023246 129.69657301 -3 112 C-5.77013584 108.09229979 -8.75766 104.52144253 -12 101 C-12.53882813 100.36964844 -13.07765625 99.73929687 -13.6328125 99.08984375 C-25.23481997 86.29265461 -42.37637483 80.0774083 -58.625 75.9375 C-59.9599953 75.58897033 -61.29479227 75.23968015 -62.62939453 74.88964844 C-69.68425682 73.04993779 -76.75987166 71.33890285 -83.875 69.75 C-93.83557492 67.42986608 -100.06319638 64.59108884 -106 56 C-108.96017334 50.67798622 -110.1290776 45.01233821 -109 39 C-105.69624054 29.30146369 -100.9773793 24.48868965 -92 20 C-78.04358536 18.75250886 -65.01089171 19.20506995 -53.77734375 28.37109375 C-47.04519134 34.54100046 -42.80163137 40.99184316 -41 50 C-22.85 44.72 -4.7 39.44 14 34 C12.5893157 26.95152272 12.5893157 26.95152272 10.1953125 20.61328125 C9.85886719 19.90236328 9.52242187 19.19144531 9.17578125 18.45898438 C8.82902344 17.75064453 8.48226562 17.04230469 8.125 16.3125 C7.78597656 15.59255859 7.44695312 14.87261719 7.09765625 14.13085938 C5.49965001 10.79813533 3.83895305 7.65270643 1.7421875 4.60546875 C0 2 0 2 0 0 Z " fill="#C60000" transform="translate(336,155)"/>
<path d="M0 0 C12.60010259 9.89524396 21.92616802 21.48804273 28.8125 35.9375 C29.13863281 36.61804443 29.46476563 37.29858887 29.80078125 37.99975586 C32.04045356 42.9276306 33.28637898 47.82299326 34.3125 53.125 C28.29548884 55.4612065 22.23475256 57.43060163 16.046875 59.26171875 C15.0910553 59.54602249 14.1352356 59.83032623 13.15045166 60.12324524 C11.14404542 60.71885416 9.13718112 61.31292203 7.12988281 61.90551758 C4.05609985 62.81439244 0.98506682 63.732177 -2.0859375 64.65039062 C-4.04150547 65.22971108 -5.99722932 65.80850567 -7.953125 66.38671875 C-8.86982971 66.66166672 -9.78653442 66.93661469 -10.73101807 67.21989441 C-11.5858075 67.47048111 -12.44059692 67.72106781 -13.32128906 67.97924805 C-14.06993225 68.20114304 -14.81857544 68.42303802 -15.58990479 68.6516571 C-17.6875 69.125 -17.6875 69.125 -21.6875 69.125 C-22.00203125 68.40054688 -22.3165625 67.67609375 -22.640625 66.9296875 C-27.81504079 55.2404952 -33.50144885 46.86023699 -45.609375 41.8515625 C-54.78747995 38.64267618 -66.74332514 38.5175419 -76.08203125 41.04296875 C-83.00512699 44.66935223 -86.29004895 50.88582164 -88.6875 58.125 C-90.07715525 64.86699932 -88.13016638 71.27440124 -84.6875 77.125 C-77.27719635 85.86325629 -67.20627393 87.60190195 -56.5 89.9375 C-13.86261241 99.59431325 -13.86261241 99.59431325 3.3125 115.125 C4.01890625 115.76179687 4.7253125 116.39859375 5.453125 117.0546875 C20.72488222 131.56868577 29.23325647 151.14838119 29.78344727 172.046875 C29.96253903 194.10375631 24.50208278 213.61336094 9.3125 230.125 C8.20648438 231.36830078 8.20648438 231.36830078 7.078125 232.63671875 C-8.36601872 249.11551916 -30.66964943 258.52089845 -53.02734375 260.3125 C-80.98228783 261.07707967 -106.45854218 251.5484036 -126.82910156 232.5 C-133.73469433 225.78409915 -138.93423959 218.47316325 -143.6875 210.125 C-144.17734375 209.27421875 -144.6671875 208.4234375 -145.171875 207.546875 C-152.84795901 193.23713813 -155.6875 178.26572877 -155.6875 162.125 C-136.5475 162.125 -117.4075 162.125 -97.6875 162.125 C-97.0275 166.085 -96.3675 170.045 -95.6875 174.125 C-91.63217847 185.53765408 -85.21037942 192.56839478 -74.44213867 197.96923828 C-65.53299047 201.9249701 -55.79241192 201.47655984 -46.625 198.4375 C-38.93433974 195.13490415 -34.29693463 191.76034249 -30.6875 184.125 C-28.33723134 176.29606452 -29.35299196 169.69529416 -32.91015625 162.44921875 C-37.68867527 156.20038618 -43.79262593 154.12911193 -51.13671875 152.37109375 C-52.03058792 152.14349869 -52.92445709 151.91590363 -53.84541321 151.68141174 C-56.68524985 150.96086726 -59.52960488 150.2607372 -62.375 149.5625 C-66.10975727 148.63033174 -69.84247865 147.69026395 -73.57421875 146.74609375 C-74.46829941 146.52024094 -75.36238007 146.29438812 -76.28355408 146.06169128 C-93.11132881 141.76321497 -107.68399221 135.99952106 -120.6875 124.125 C-121.46738281 123.43792969 -122.24726563 122.75085938 -123.05078125 122.04296875 C-139.07932109 107.12175463 -147.24669034 85.61348331 -148.02880859 64.00683594 C-148.34738317 43.84891392 -141.06469708 25.89594467 -128.6875 10.125 C-128.16929687 9.44308594 -127.65109375 8.76117188 -127.1171875 8.05859375 C-96.62853328 -29.57353742 -36.03943643 -27.47119899 0 0 Z " fill="#D8D7D7" transform="translate(316.6875,135.875)"/>
<path d="M0 0 C12.60010259 9.89524396 21.92616802 21.48804273 28.8125 35.9375 C29.13863281 36.61804443 29.46476563 37.29858887 29.80078125 37.99975586 C32.04045356 42.9276306 33.28637898 47.82299326 34.3125 53.125 C28.29548884 55.4612065 22.23475256 57.43060163 16.046875 59.26171875 C15.0910553 59.54602249 14.1352356 59.83032623 13.15045166 60.12324524 C11.14404542 60.71885416 9.13718112 61.31292203 7.12988281 61.90551758 C4.05609985 62.81439244 0.98506682 63.732177 -2.0859375 64.65039062 C-4.04150547 65.22971108 -5.99722932 65.80850567 -7.953125 66.38671875 C-8.86982971 66.66166672 -9.78653442 66.93661469 -10.73101807 67.21989441 C-11.5858075 67.47048111 -12.44059692 67.72106781 -13.32128906 67.97924805 C-14.06993225 68.20114304 -14.81857544 68.42303802 -15.58990479 68.6516571 C-17.6875 69.125 -17.6875 69.125 -21.6875 69.125 C-22.00203125 68.40054688 -22.3165625 67.67609375 -22.640625 66.9296875 C-27.81504079 55.2404952 -33.50144885 46.86023699 -45.609375 41.8515625 C-54.78747995 38.64267618 -66.74332514 38.5175419 -76.08203125 41.04296875 C-83.00512699 44.66935223 -86.29004895 50.88582164 -88.6875 58.125 C-90.07715525 64.86699932 -88.13016638 71.27440124 -84.6875 77.125 C-78.01927711 84.98819204 -70.38701766 86.70012059 -60.6875 89.125 C-60.6875 108.925 -60.6875 128.725 -60.6875 149.125 C-83.22099965 145.02800006 -103.55033924 139.97755701 -120.6875 124.125 C-121.46480469 123.43921875 -122.24210937 122.7534375 -123.04296875 122.046875 C-138.51571058 107.66601341 -146.77745209 86.94592366 -147.953125 66.09765625 C-148.7119447 45.13465005 -141.58356709 26.55708549 -128.6875 10.125 C-128.16929687 9.44308594 -127.65109375 8.76117188 -127.1171875 8.05859375 C-96.62853328 -29.57353742 -36.03943643 -27.47119899 0 0 Z " fill="#F7FDF9" transform="translate(316.6875,135.875)"/>
<path d="M0 0 C19.14 0 38.28 0 58 0 C58.66 3.96 59.32 7.92 60 12 C64.51455848 24.70505776 71.66741973 30.73806361 83.40234375 36.51953125 C87.64192849 38.36575434 87.64192849 38.36575434 95 40 C95 58.81 95 77.62 95 97 C68.40072176 97 47.06674907 87.48166833 28 69 C27.08347656 68.19369141 27.08347656 68.19369141 26.1484375 67.37109375 C10.5874342 53.19565923 1.57766804 29.58032634 0 9 C0 6.03 0 3.06 0 0 Z " fill="#F7FEFA" transform="translate(161,298)"/>
<path d="M0 0 C32.06992404 -1.01314462 57.56625684 5.75994944 82.25 26.9296875 C90.91623806 35.07175793 97.41356575 45.13973334 102.5 55.8125 C102.82613281 56.49304443 103.15226562 57.17358887 103.48828125 57.87475586 C105.72795356 62.8026306 106.97387898 67.69799326 108 73 C101.98298884 75.3362065 95.92225256 77.30560163 89.734375 79.13671875 C88.7785553 79.42102249 87.8227356 79.70532623 86.83795166 79.99824524 C84.83154542 80.59385416 82.82468112 81.18792203 80.81738281 81.78051758 C77.74359985 82.68939244 74.67256682 83.607177 71.6015625 84.52539062 C69.64599453 85.10471108 67.69027068 85.68350567 65.734375 86.26171875 C64.35931793 86.6741407 64.35931793 86.6741407 62.95648193 87.09489441 C62.1016925 87.34548111 61.24690308 87.59606781 60.36621094 87.85424805 C59.61756775 88.07614304 58.86892456 88.29803802 58.09759521 88.5266571 C56 89 56 89 52 89 C51.68546875 88.27554688 51.3709375 87.55109375 51.046875 86.8046875 C45.87245921 75.1154952 40.18605115 66.73523699 28.078125 61.7265625 C24.59317624 60.50814057 21.36007137 59.86800357 17.671875 59.68359375 C16.47304688 59.62075195 16.47304688 59.62075195 15.25 59.55664062 C14.425 59.51732422 13.6 59.47800781 12.75 59.4375 C11.48929688 59.37272461 11.48929688 59.37272461 10.203125 59.30664062 C8.13559329 59.20091457 6.06781719 59.09998705 4 59 C4 58.67 4 58.34 4 58 C6.97 58 9.94 58 13 58 C13 39.19 13 20.38 13 1 C8.71 1 4.42 1 0 1 C0 0.67 0 0.34 0 0 Z " fill="#D8D6D6" transform="translate(243,116)"/>
<path d="M0 0 C3.99848112 1.23271029 7.45673128 2.72829606 11.09765625 4.7734375 C19.75317737 9.17264851 29.0691865 11.24835298 38.4375 13.625 C42.02076299 14.54996168 45.60228965 15.48154822 49.18359375 16.4140625 C50.03871552 16.63605316 50.89383728 16.85804382 51.77487183 17.08676147 C74.71856305 23.07784458 74.71856305 23.07784458 79.4609375 30.19140625 C83.24139208 36.86463962 84.23244839 42.71270235 82.48828125 50.1953125 C80.47129491 56.32788368 76.93670323 60.98725044 71.4375 64.4375 C68 66 68 66 65.96707535 65.75660706 C62.53109119 64.43500549 60.21015189 61.60665888 57.67089844 59.02734375 C56.7336795 58.09319138 56.7336795 58.09319138 55.77752686 57.14016724 C53.714145 55.07979369 51.6617053 53.00887757 49.609375 50.9375 C48.18077908 49.50584709 46.75159221 48.07478364 45.32183838 46.64428711 C42.32812905 43.64597474 39.33939987 40.6428166 36.35449219 37.63574219 C32.51868561 33.77160225 28.67420679 29.91624024 24.82644272 26.06401062 C21.87668156 23.11010364 18.9297631 20.15337556 15.98389435 17.19558716 C14.56650334 15.77248006 13.14863036 14.34985284 11.73027802 12.92770386 C9.75470968 10.9453005 7.78257566 8.9595486 5.81152344 6.97265625 C5.21936035 6.37937531 4.62719727 5.78609436 4.01708984 5.17483521 C0 1.11468721 0 1.11468721 0 0 Z " fill="#C60101" transform="translate(205,268)"/>
<path d="M0 0 C6.72175754 5.56687839 12.7670994 11.7085136 18.88476562 17.92382812 C23.21324842 22.29416571 27.58772886 26.50499152 32.29321289 30.46923828 C34.8436031 32.75660012 36.89484229 35.30276669 39 38 C28.28969684 39.37703898 19.97933941 35.43935056 11.54296875 29.17578125 C5.46065667 23.62843353 0.5779269 16.05993443 -0.3671875 7.78515625 C-0.3739485 5.15850903 -0.27750864 2.61063679 0 0 Z " fill="#C70303" transform="translate(220,299)"/>
</svg>
