<svg width="800" height="298" viewBox="0 0 800 298" xmlns="http://www.w3.org/2000/svg"><defs><pattern id="satori_pattern_id_0" x="0" y="0" width="1" height="1" patternUnits="objectBoundingBox"><linearGradient id="satori_biid_0" x1="0" y1="0" x2="0" y2="1" spreadMethod="pad"><stop offset="0%" stop-color="#dbf4ff"/><stop offset="100%" stop-color="#fff1f1"/></linearGradient><rect x="0" y="0" width="800" height="298" fill="url(#satori_biid_0)"/></pattern></defs><mask id="satori_om-id"><rect x="0" y="0" width="800" height="298" fill="#fff"/></mask><rect x="0" y="0" width="800" height="298" fill="url(#satori_pattern_id_0)"/><clipPath id="satori_bct-id-0"><path d="M305.3 98.1L305.3 98.1L289.8 98.1L289.8 54.5L305.4 54.5Q312.0 54.5 316.7 57.1Q321.5 59.7 324.0 64.6Q326.6 69.5 326.6 76.3L326.6 76.3Q326.6 83.1 324.0 88.0Q321.5 92.9 316.7 95.5Q311.9 98.1 305.3 98.1ZM299.0 62.4L299.0 90.2L304.9 90.2Q309.0 90.2 311.8 88.8Q314.6 87.3 316.0 84.2Q317.4 81.1 317.4 76.3L317.4 76.3Q317.4 71.4 316.0 68.4Q314.6 65.3 311.8 63.8Q309.0 62.4 304.9 62.4L304.9 62.4L299.0 62.4ZM346.2 98.8L346.2 98.8Q341.1 98.8 337.5 96.7Q333.9 94.7 331.9 90.9Q329.9 87.1 329.9 81.9L329.9 81.9Q329.9 76.9 331.9 73.0Q333.9 69.2 337.4 67.1Q341.0 65.0 345.8 65.0L345.8 65.0Q349.0 65.0 351.9 66.0Q354.7 67.0 356.8 69.1Q358.9 71.2 360.0 74.3Q361.2 77.4 361.2 81.6L361.2 81.6L361.2 84.1L333.6 84.1L333.6 78.5L352.7 78.5Q352.7 76.5 351.8 75.0Q350.9 73.5 349.4 72.6Q347.9 71.7 346.0 71.7L346.0 71.7Q343.9 71.7 342.3 72.7Q340.7 73.6 339.8 75.2Q338.9 76.8 338.9 78.8L338.9 78.8L338.9 84.1Q338.9 86.5 339.8 88.3Q340.7 90.1 342.4 91.0Q344.0 92.0 346.3 92.0L346.3 92.0Q347.8 92.0 349.1 91.6Q350.3 91.1 351.2 90.3Q352.1 89.4 352.6 88.2L352.6 88.2L361.0 88.8Q360.4 91.8 358.4 94.0Q356.4 96.3 353.3 97.5Q350.2 98.8 346.2 98.8ZM385.1 65.4L394.7 65.4L383.3 98.1L373.0 98.1L361.6 65.4L371.2 65.4L378.0 88.8L378.3 88.8L385.1 65.4ZM411.2 98.8L411.2 98.8Q406.1 98.8 402.5 96.7Q398.9 94.7 396.9 90.9Q395.0 87.1 395.0 81.9L395.0 81.9Q395.0 76.9 396.9 73.0Q398.9 69.2 402.4 67.1Q406.0 65.0 410.8 65.0L410.8 65.0Q414.1 65.0 416.9 66.0Q419.7 67.0 421.8 69.1Q423.9 71.2 425.0 74.3Q426.2 77.4 426.2 81.6L426.2 81.6L426.2 84.1L398.6 84.1L398.6 78.5L417.7 78.5Q417.7 76.5 416.8 75.0Q416.0 73.5 414.5 72.6Q413.0 71.7 411.0 71.7L411.0 71.7Q408.9 71.7 407.3 72.7Q405.7 73.6 404.8 75.2Q403.9 76.8 403.9 78.8L403.9 78.8L403.9 84.1Q403.9 86.5 404.8 88.3Q405.7 90.1 407.4 91.0Q409.1 92.0 411.3 92.0L411.3 92.0Q412.8 92.0 414.1 91.6Q415.4 91.1 416.3 90.3Q417.2 89.4 417.6 88.2L417.6 88.2L426.0 88.8Q425.4 91.8 423.4 94.0Q421.4 96.3 418.3 97.5Q415.2 98.8 411.2 98.8ZM430.1 54.5L439.2 54.5L439.2 98.1L430.1 98.1L430.1 54.5ZM459.2 98.8L459.2 98.8Q454.3 98.8 450.7 96.6Q447.1 94.5 445.1 90.7Q443.1 86.9 443.1 81.9L443.1 81.9Q443.1 76.8 445.1 73.0Q447.1 69.2 450.7 67.1Q454.3 65.0 459.2 65.0L459.2 65.0Q464.2 65.0 467.8 67.1Q471.4 69.2 473.4 73.0Q475.3 76.8 475.3 81.9L475.3 81.9Q475.3 86.9 473.4 90.7Q471.4 94.5 467.8 96.6Q464.2 98.8 459.2 98.8ZM459.3 91.7L459.3 91.7Q461.5 91.7 463.1 90.4Q464.6 89.2 465.3 86.9Q466.1 84.7 466.1 81.8L466.1 81.8Q466.1 79.0 465.3 76.7Q464.6 74.5 463.1 73.2Q461.5 71.9 459.3 71.9L459.3 71.9Q457.0 71.9 455.5 73.2Q453.9 74.5 453.1 76.7Q452.4 79.0 452.4 81.8L452.4 81.8Q452.4 84.7 453.1 86.9Q453.9 89.2 455.5 90.4Q457.0 91.7 459.3 91.7ZM488.3 110.4L479.3 110.4L479.3 65.4L488.2 65.4L488.2 70.9L488.6 70.9Q489.2 69.6 490.4 68.2Q491.5 66.8 493.3 65.9Q495.2 65.0 497.9 65.0L497.9 65.0Q501.5 65.0 504.5 66.8Q507.6 68.7 509.4 72.4Q511.2 76.2 511.2 81.8L511.2 81.8Q511.2 87.3 509.4 91.0Q507.7 94.8 504.7 96.7Q501.6 98.7 497.9 98.7L497.9 98.7Q495.3 98.7 493.4 97.8Q491.6 96.9 490.4 95.6Q489.2 94.2 488.6 92.9L488.6 92.9L488.3 92.9L488.3 110.4ZM488.2 81.8L488.2 81.8Q488.2 84.7 489.0 86.9Q489.8 89.0 491.3 90.2Q492.8 91.4 495.0 91.4L495.0 91.4Q497.3 91.4 498.8 90.2Q500.3 89.0 501.1 86.8Q501.9 84.6 501.9 81.8L501.9 81.8Q501.9 78.9 501.1 76.8Q500.3 74.6 498.8 73.4Q497.3 72.2 495.0 72.2L495.0 72.2Q492.8 72.2 491.3 73.4Q489.8 74.5 489.0 76.7Q488.2 78.8 488.2 81.8Z "/></clipPath><defs><pattern id="satori_pattern_id-0_0" x="0" y="0" width="1" height="1" patternUnits="objectBoundingBox"><linearGradient id="satori_biid-0_0" x1="0" y1="0" x2="1" y2="0" spreadMethod="pad"><stop offset="0%" stop-color="rgb(0, 124, 240)"/><stop offset="100%" stop-color="rgb(0, 223, 216)"/></linearGradient><rect x="0" y="0" width="228" height="73" fill="url(#satori_biid-0_0)"/></pattern></defs><mask id="satori_om-id-0"><rect x="286" y="40" width="228" height="73" fill="#fff"/></mask><rect x="286" y="40" width="228" height="73" fill="url(#satori_pattern_id-0_0)" clip-path="url(#satori_bct-id-0)"/><clipPath id="satori_bct-id-1"><path d="M301.0 171.1L291.8 171.1L291.8 127.5L309.0 127.5Q314.0 127.5 317.5 129.4Q321.0 131.3 322.8 134.6Q324.6 137.9 324.6 142.3L324.6 142.3Q324.6 146.6 322.8 149.9Q320.9 153.3 317.4 155.1Q313.8 157.0 308.8 157.0L308.8 157.0L297.8 157.0L297.8 149.6L307.3 149.6Q309.9 149.6 311.7 148.7Q313.4 147.7 314.3 146.1Q315.1 144.4 315.1 142.3L315.1 142.3Q315.1 140.1 314.3 138.5Q313.4 136.8 311.7 135.9Q309.9 135.0 307.2 135.0L307.2 135.0L301.0 135.0L301.0 171.1ZM337.6 171.1L328.5 171.1L328.5 138.4L337.3 138.4L337.3 144.1L337.6 144.1Q338.5 141.1 340.6 139.5Q342.7 137.9 345.5 137.9L345.5 137.9Q346.2 137.9 347.0 138.0Q347.7 138.1 348.3 138.2L348.3 138.2L348.3 146.3Q347.7 146.1 346.6 146.0Q345.4 145.8 344.5 145.8L344.5 145.8Q342.5 145.8 340.9 146.7Q339.4 147.5 338.5 149.1Q337.6 150.6 337.6 152.6L337.6 152.6L337.6 171.1ZM364.4 171.8L364.4 171.8Q359.3 171.8 355.7 169.7Q352.1 167.7 350.1 163.9Q348.2 160.1 348.2 154.9L348.2 154.9Q348.2 149.9 350.1 146.0Q352.1 142.2 355.6 140.1Q359.2 138.0 364.0 138.0L364.0 138.0Q367.3 138.0 370.1 139.0Q372.9 140.0 375.0 142.1Q377.1 144.2 378.2 147.3Q379.4 150.4 379.4 154.6L379.4 154.6L379.4 157.1L351.8 157.1L351.8 151.5L370.9 151.5Q370.9 149.5 370.0 148.0Q369.2 146.5 367.7 145.6Q366.2 144.7 364.2 144.7L364.2 144.7Q362.1 144.7 360.5 145.7Q358.9 146.6 358.0 148.2Q357.1 149.8 357.1 151.8L357.1 151.8L357.1 157.1Q357.1 159.5 358.0 161.3Q358.9 163.1 360.6 164.0Q362.3 165.0 364.5 165.0L364.5 165.0Q366.1 165.0 367.3 164.6Q368.6 164.1 369.5 163.3Q370.4 162.4 370.8 161.2L370.8 161.2L379.2 161.8Q378.6 164.8 376.6 167.0Q374.6 169.3 371.5 170.5Q368.4 171.8 364.4 171.8ZM403.3 138.4L412.9 138.4L401.5 171.1L391.3 171.1L379.8 138.4L389.4 138.4L396.2 161.8L396.5 161.8L403.3 138.4ZM424.7 171.1L415.6 171.1L415.6 138.4L424.7 138.4L424.7 171.1ZM420.1 134.2L420.1 134.2Q418.1 134.2 416.7 132.8Q415.2 131.5 415.2 129.6L415.2 129.6Q415.2 127.7 416.7 126.3Q418.1 125.0 420.1 125.0L420.1 125.0Q422.2 125.0 423.6 126.3Q425.0 127.7 425.0 129.6L425.0 129.6Q425.0 131.5 423.6 132.8Q422.2 134.2 420.1 134.2ZM444.8 171.8L444.8 171.8Q439.8 171.8 436.1 169.7Q432.5 167.7 430.5 163.9Q428.6 160.1 428.6 154.9L428.6 154.9Q428.6 149.9 430.5 146.0Q432.5 142.2 436.1 140.1Q439.6 138.0 444.4 138.0L444.4 138.0Q447.7 138.0 450.5 139.0Q453.3 140.0 455.4 142.1Q457.5 144.2 458.7 147.3Q459.8 150.4 459.8 154.6L459.8 154.6L459.8 157.1L432.2 157.1L432.2 151.5L451.3 151.5Q451.3 149.5 450.4 148.0Q449.6 146.5 448.1 145.6Q446.6 144.7 444.6 144.7L444.6 144.7Q442.5 144.7 440.9 145.7Q439.4 146.6 438.5 148.2Q437.6 149.8 437.5 151.8L437.5 151.8L437.5 157.1Q437.5 159.5 438.5 161.3Q439.4 163.1 441.0 164.0Q442.7 165.0 445.0 165.0L445.0 165.0Q446.5 165.0 447.7 164.6Q449.0 164.1 449.9 163.3Q450.8 162.4 451.2 161.2L451.2 161.2L459.6 161.8Q459.0 164.8 457.0 167.0Q455.1 169.3 452.0 170.5Q448.9 171.8 444.8 171.8ZM479.5 171.1L470.0 171.1L461.0 138.4L470.2 138.4L475.3 160.4L475.6 160.4L480.9 138.4L489.9 138.4L495.3 160.3L495.5 160.3L500.5 138.4L509.7 138.4L500.8 171.1L491.2 171.1L485.6 150.5L485.2 150.5L479.5 171.1Z "/></clipPath><defs><pattern id="satori_pattern_id-1_0" x="0" y="0" width="1" height="1" patternUnits="objectBoundingBox"><linearGradient id="satori_biid-1_0" x1="0" y1="0" x2="1" y2="0" spreadMethod="pad"><stop offset="0%" stop-color="rgb(121, 40, 202)"/><stop offset="100%" stop-color="rgb(255, 0, 128)"/></linearGradient><rect x="0" y="0" width="224" height="72" fill="url(#satori_biid-1_0)"/></pattern></defs><mask id="satori_om-id-1"><rect x="288" y="113" width="224" height="72" fill="#fff"/></mask><rect x="288" y="113" width="224" height="72" fill="url(#satori_pattern_id-1_0)" clip-path="url(#satori_bct-id-1)"/><clipPath id="satori_bct-id-2"><path d="M374.3 212.0L365.5 212.0Q365.2 209.5 363.3 208.0Q361.3 206.6 358.0 206.6L358.0 206.6Q355.7 206.6 354.2 207.2Q352.6 207.9 351.8 209.0Q351.0 210.1 351.0 211.5L351.0 211.5Q351.0 212.7 351.5 213.5Q352.0 214.4 353 215.0Q354.0 215.7 355.2 216.1Q356.5 216.6 357.9 216.9L357.9 216.9L361.8 217.8Q364.7 218.5 367.1 219.5Q369.4 220.6 371.2 222.2Q372.9 223.7 373.9 225.8Q374.9 227.9 374.9 230.7L374.9 230.7Q374.9 234.7 372.9 237.6Q370.9 240.5 367.1 242.1Q363.3 243.7 358.0 243.7L358.0 243.7Q352.7 243.7 348.8 242.1Q344.9 240.5 342.7 237.3Q340.5 234.1 340.4 229.4L340.4 229.4L349.3 229.4Q349.5 231.6 350.6 233.1Q351.7 234.5 353.6 235.3Q355.5 236.0 357.9 236.0L357.9 236.0Q360.2 236.0 361.9 235.3Q363.7 234.6 364.6 233.4Q365.6 232.2 365.6 230.6L365.6 230.6Q365.6 229.2 364.7 228.2Q363.9 227.2 362.2 226.5Q360.6 225.8 358.2 225.2L358.2 225.2L353.4 224.0Q347.9 222.6 344.7 219.8Q341.5 216.9 341.5 212.1L341.5 212.1Q341.5 208.1 343.7 205.2Q345.8 202.2 349.5 200.6Q353.3 198.9 358.1 198.9L358.1 198.9Q362.9 198.9 366.6 200.6Q370.2 202.2 372.2 205.2Q374.2 208.1 374.3 212.0L374.3 212.0ZM388.0 224.2L388.0 224.2L388.0 243.1L378.9 243.1L378.9 199.5L387.7 199.5L387.7 216.2L388.1 216.2Q389.2 213.3 391.7 211.6Q394.2 210.0 397.9 210.0L397.9 210.0Q401.3 210.0 403.9 211.5Q406.4 212.9 407.8 215.7Q409.2 218.5 409.2 222.3L409.2 222.3L409.2 243.1L400.1 243.1L400.1 223.9Q400.2 220.9 398.6 219.2Q397.1 217.5 394.3 217.5L394.3 217.5Q392.4 217.5 391.0 218.3Q389.6 219.1 388.8 220.6Q388.0 222.1 388.0 224.2ZM423.4 243.1L414.4 243.1L414.4 210.4L423.4 210.4L423.4 243.1ZM418.9 206.2L418.9 206.2Q416.9 206.2 415.5 204.8Q414.0 203.5 414.0 201.6L414.0 201.6Q414.0 199.7 415.5 198.3Q416.9 197.0 418.9 197.0L418.9 197.0Q421.0 197.0 422.4 198.3Q423.8 199.7 423.8 201.6L423.8 201.6Q423.8 203.5 422.4 204.8Q421.0 206.2 418.9 206.2ZM437.8 255.4L428.7 255.4L428.7 210.4L437.6 210.4L437.6 215.9L438.0 215.9Q438.6 214.6 439.8 213.2Q440.9 211.8 442.8 210.9Q444.6 210.0 447.4 210.0L447.4 210.0Q450.9 210.0 454.0 211.8Q457.0 213.7 458.8 217.4Q460.6 221.2 460.6 226.8L460.6 226.8Q460.6 232.3 458.9 236.0Q457.1 239.8 454.1 241.7Q451.1 243.7 447.3 243.7L447.3 243.7Q444.7 243.7 442.8 242.8Q441.0 241.9 439.8 240.6Q438.7 239.2 438.0 237.9L438.0 237.9L437.8 237.9L437.8 255.4ZM437.6 226.8L437.6 226.8Q437.6 229.7 438.4 231.9Q439.2 234.0 440.7 235.2Q442.3 236.4 444.5 236.4L444.5 236.4Q446.7 236.4 448.2 235.2Q449.7 234.0 450.5 231.8Q451.3 229.6 451.3 226.8L451.3 226.8Q451.3 223.9 450.6 221.8Q449.8 219.6 448.2 218.4Q446.7 217.2 444.5 217.2L444.5 217.2Q442.2 217.2 440.7 218.4Q439.2 219.5 438.4 221.7Q437.6 223.8 437.6 226.8Z "/></clipPath><defs><pattern id="satori_pattern_id-2_0" x="0" y="0" width="1" height="1" patternUnits="objectBoundingBox"><linearGradient id="satori_biid-2_0" x1="0" y1="0" x2="1" y2="0" spreadMethod="pad"><stop offset="0%" stop-color="rgb(255, 77, 77)"/><stop offset="100%" stop-color="rgb(249, 203, 40)"/></linearGradient><rect x="0" y="0" width="124" height="73" fill="url(#satori_biid-2_0)"/></pattern></defs><mask id="satori_om-id-2"><rect x="338" y="185" width="124" height="73" fill="#fff"/></mask><rect x="338" y="185" width="124" height="73" fill="url(#satori_pattern_id-2_0)" clip-path="url(#satori_bct-id-2)"/></svg>